<svg width="1321" height="520" viewBox="0 0 1321 520" fill="none" xmlns="http://www.w3.org/2000/svg">
<mask id="mask0_2352_31813" style="mask-type:alpha" maskUnits="userSpaceOnUse" x="200" y="0" width="921" height="320">
<path opacity="0.7" fill-rule="evenodd" clip-rule="evenodd" d="M223.868 35.9937C249.89 48.3171 301.934 82.8414 301.934 122.351C301.934 125.117 301.891 128.369 301.842 132.034C301.011 193.815 298.609 372.613 477.584 304.944C502.918 295.366 528.948 286.05 554.537 276.891C589.788 264.275 624.202 251.958 654.808 239.667C763.464 302.113 864.665 341.311 977.426 257.782C1129.56 145.083 1171.83 -47.7552 1045.83 19.623C1023.73 33.7811 960.075 62.9148 882.31 66.1843C876.867 66.4132 870.461 66.6603 863.245 66.9387C816.125 68.7563 734.442 71.9073 660.63 80.0097C448.088 1.27255 106.673 -30.3612 223.868 35.9937Z" fill="url(#paint0_linear_2352_31813)"/>
</mask>
<g mask="url(#mask0_2352_31813)">
<rect x="183.172" y="-228.666" width="24" height="792" stroke="#393953" stroke-opacity="0.3"/>
<rect x="207.172" y="-228.666" width="24" height="792" stroke="#393953" stroke-opacity="0.3"/>
<rect x="231.172" y="-228.666" width="24" height="792" stroke="#393953" stroke-opacity="0.3"/>
<rect x="255.172" y="-228.666" width="24" height="792" stroke="#393953" stroke-opacity="0.3"/>
<rect x="279.172" y="-228.666" width="24" height="792" stroke="#393953" stroke-opacity="0.3"/>
<rect x="303.172" y="-228.666" width="24" height="792" stroke="#393953" stroke-opacity="0.3"/>
<rect x="327.172" y="-228.666" width="24" height="792" stroke="#393953" stroke-opacity="0.3"/>
<rect x="351.172" y="-228.666" width="24" height="792" stroke="#393953" stroke-opacity="0.3"/>
<rect x="375.172" y="-228.666" width="24" height="792" stroke="#393953" stroke-opacity="0.3"/>
<rect x="399.172" y="-228.666" width="24" height="792" stroke="#393953" stroke-opacity="0.3"/>
<rect x="423.172" y="-228.666" width="24" height="792" stroke="#393953" stroke-opacity="0.3"/>
<rect x="447.172" y="-228.666" width="24" height="792" stroke="#393953" stroke-opacity="0.3"/>
<rect x="471.172" y="-228.666" width="24" height="792" stroke="#393953" stroke-opacity="0.3"/>
<rect x="495.172" y="-228.666" width="24" height="792" stroke="#393953" stroke-opacity="0.3"/>
<rect x="519.172" y="-228.666" width="24" height="792" stroke="#393953" stroke-opacity="0.3"/>
<rect x="543.172" y="-228.666" width="24" height="792" stroke="#393953" stroke-opacity="0.3"/>
<rect x="567.172" y="-228.666" width="24" height="792" stroke="#393953" stroke-opacity="0.3"/>
<rect x="591.172" y="-228.666" width="24" height="792" stroke="#393953" stroke-opacity="0.3"/>
<rect x="615.172" y="-228.666" width="24" height="792" stroke="#393953" stroke-opacity="0.3"/>
<rect x="639.172" y="-228.666" width="24" height="792" stroke="#393953" stroke-opacity="0.3"/>
<rect x="663.172" y="-228.666" width="24" height="792" stroke="#393953" stroke-opacity="0.3"/>
<rect x="687.172" y="-228.666" width="24" height="792" stroke="#393953" stroke-opacity="0.3"/>
<rect x="711.172" y="-228.666" width="24" height="792" stroke="#393953" stroke-opacity="0.3"/>
<rect x="735.172" y="-228.666" width="24" height="792" stroke="#393953" stroke-opacity="0.3"/>
<rect x="759.172" y="-228.666" width="24" height="792" stroke="#393953" stroke-opacity="0.3"/>
<rect x="783.172" y="-228.666" width="24" height="792" stroke="#393953" stroke-opacity="0.3"/>
<rect x="807.172" y="-228.666" width="24" height="792" stroke="#393953" stroke-opacity="0.3"/>
<rect x="831.172" y="-228.666" width="24" height="792" stroke="#393953" stroke-opacity="0.3"/>
<rect x="855.172" y="-228.666" width="24" height="792" stroke="#393953" stroke-opacity="0.3"/>
<rect x="879.172" y="-228.666" width="24" height="792" stroke="#393953" stroke-opacity="0.3"/>
<rect x="903.172" y="-228.666" width="24" height="792" stroke="#393953" stroke-opacity="0.3"/>
<rect x="927.172" y="-228.666" width="24" height="792" stroke="#393953" stroke-opacity="0.3"/>
<rect x="951.172" y="-228.666" width="24" height="792" stroke="#393953" stroke-opacity="0.3"/>
<rect x="975.172" y="-228.666" width="24" height="792" stroke="#393953" stroke-opacity="0.3"/>
<rect x="999.172" y="-228.666" width="24" height="792" stroke="#393953" stroke-opacity="0.3"/>
<rect x="1023.17" y="-228.666" width="24" height="792" stroke="#393953" stroke-opacity="0.3"/>
<rect x="1047.17" y="-228.666" width="24" height="792" stroke="#393953" stroke-opacity="0.3"/>
<rect x="1071.17" y="-228.666" width="24" height="792" stroke="#393953" stroke-opacity="0.3"/>
<rect x="1095.17" y="-228.666" width="24" height="792" stroke="#393953" stroke-opacity="0.3"/>
<rect x="1119.17" y="-228.666" width="24" height="792" stroke="#393953" stroke-opacity="0.3"/>
<rect x="-56.8281" y="11.334" width="24" height="1440" transform="rotate(-90 -56.8281 11.334)" stroke="#393953" stroke-opacity="0.3"/>
<rect x="-56.8281" y="35.334" width="24" height="1440" transform="rotate(-90 -56.8281 35.334)" stroke="#393953" stroke-opacity="0.3"/>
<rect x="-56.8281" y="59.334" width="24" height="1440" transform="rotate(-90 -56.8281 59.334)" stroke="#393953" stroke-opacity="0.3"/>
<rect x="-56.8281" y="83.334" width="24" height="1440" transform="rotate(-90 -56.8281 83.334)" stroke="#393953" stroke-opacity="0.3"/>
<rect x="-56.8281" y="107.334" width="24" height="1440" transform="rotate(-90 -56.8281 107.334)" stroke="#393953" stroke-opacity="0.3"/>
<rect x="-56.8281" y="131.334" width="24" height="1440" transform="rotate(-90 -56.8281 131.334)" stroke="#393953" stroke-opacity="0.3"/>
<rect x="-56.8281" y="155.334" width="24" height="1440" transform="rotate(-90 -56.8281 155.334)" stroke="#393953" stroke-opacity="0.3"/>
<rect x="-56.8281" y="179.334" width="24" height="1440" transform="rotate(-90 -56.8281 179.334)" stroke="#393953" stroke-opacity="0.3"/>
<rect x="-56.8281" y="203.334" width="24" height="1440" transform="rotate(-90 -56.8281 203.334)" stroke="#393953" stroke-opacity="0.3"/>
<rect x="-56.8281" y="227.334" width="24" height="1440" transform="rotate(-90 -56.8281 227.334)" stroke="#393953" stroke-opacity="0.3"/>
<rect x="-56.8281" y="251.334" width="24" height="1440" transform="rotate(-90 -56.8281 251.334)" stroke="#393953" stroke-opacity="0.3"/>
<rect x="-56.8281" y="275.334" width="24" height="1440" transform="rotate(-90 -56.8281 275.334)" stroke="#393953" stroke-opacity="0.3"/>
<rect x="-56.8281" y="299.334" width="24" height="1440" transform="rotate(-90 -56.8281 299.334)" stroke="#393953" stroke-opacity="0.3"/>
<rect x="-56.8281" y="323.334" width="24" height="1440" transform="rotate(-90 -56.8281 323.334)" stroke="#393953" stroke-opacity="0.3"/>
</g>
<defs>
<linearGradient id="paint0_linear_2352_31813" x1="1110.34" y1="-20.2222" x2="906.286" y2="398.477" gradientUnits="userSpaceOnUse">
<stop stop-color="white"/>
<stop offset="1" stop-color="white"/>
</linearGradient>
</defs>
</svg>
