<svg height="auto" viewBox="0 0 230 64" fill="none" xmlns="http://www.w3.org/2000/svg"><path fill-rule="evenodd" clip-rule="evenodd" d="M95.842.56c-.33.323-.597.357-.913.116-.617-.47-3.354.769-3.792 1.716-.25.54-.279.403-.114-.543l.22-1.265-1.567.251c-2.29.369-2.955.409-3.349.2-.508-.268-2.792-.045-3.277.32-.27.205-.466.166-.57-.112-.126-.34-.39-.345-1.334-.025-.801.27-1.386.294-1.835.074-.503-.247-.831-.165-1.386.343-.604.554-.982.627-2.242.431-.834-.129-1.677-.186-1.874-.126-.196.06-1.242.154-2.323.21-3.126.16-3.218.173-3.218.436 0 .138-.507.183-1.127.1-1.007-.136-1.105-.078-.927.548.134.47.034.7-.303.7a.499.499 0 0 1-.503-.492c0-.327-.357-.491-1.072-.491-.62 0-1.073.173-1.073.41 0 .253-.554.426-1.448.453-1.648.05-2.17.343-1.401.789.356.206.381.306.078.31-.245.002-.446.226-.446.497 0 .27-.242.491-.537.491-.294 0-.536-.221-.536-.491s.161-.492.358-.492c.196 0 .357-.148.357-.328 0-.494-.968-.393-1.185.123-.115.275-.523.393-1.042.302-.789-.138-.842-.062-.707 1.002.14 1.094 1.024 1.861 1.476 1.278.114-.147.65-.294 1.19-.326a80.45 80.45 0 0 0 1.43-.094c.246-.02.809.064 1.251.188.6.17.805.094.805-.296 0-.424.17-.462.917-.202 1.38.481 2.658.399 2.658-.172 0-.306.337-.492.894-.492.522 0 .893.189.893.453 0 .621 2.828.66 3.087.043.102-.245.617-.439 1.142-.43 1.82.032 2.206-.068 2.206-.572 0-.278.201-.482.447-.453.246.03.814.036 1.264.014.7-.033.763-.131.439-.686-.309-.53-.279-.613.166-.457.3.105.544.397.544.648s.224.457.498.457.59.219.702.486c.299.715 4.61.525 5.593-.246.755-.593 1.615-.78 1.276-.278-.107.16.209.361.703.448.494.087.986.027 1.093-.132.107-.159.344-.204.528-.1.183.103.332.032.332-.159 0-.19.332-.347.737-.347.404 0 .636.147.515.328-.136.201.371.309 1.32.278 1.027-.032 1.219-.094.576-.183-.687-.097-.903-.279-.755-.635.115-.274.308-.376.428-.225.338.423 1.76 1.093 2.321 1.093.277 0 1.244-.642 2.15-1.427 1.127-.976 1.646-1.256 1.646-.89 0 .295-.486.799-1.079 1.12-1.214.658-1.112 1.197.227 1.197.572 0 .804-.133.645-.37-.178-.264-.068-.276.387-.042.805.413 1.965.15 1.965-.446 0-.25.16-.454.358-.454.196 0 .357.197.357.437 0 .686 4.211.608 4.413-.082.125-.428.159-.418.193.055.048.661.774.755 1.4.18.325-.298.429-.3.429-.007 0 .43 6.278.41 7.03-.02.229-.132.498-.054.598.173.14.314.268.3.544-.064.198-.262.283-.592.187-.734-.095-.142.076-.17.381-.063.306.108.555.37.555.582 0 .423.683.519 3.396.48.984-.015 3.075.007 4.648.048 5.011.13 5.32.116 5.461-.271.095-.264.301-.23.671.109.673.617 2.886.63 4.463.025 1.042-.399 1.305-.399 1.9 0 .844.567 1.581.619.983.07-.584-.535-.539-.918.107-.918.295 0 .536.222.536.492s.282.504.626.518a74.69 74.69 0 0 1 1.698.105c.59.042 1.191-.08 1.335-.273.176-.234.265-.214.268.06.003.225.368.407.81.405.56-.004.663-.087.341-.275-.373-.217-.36-.349.064-.672.431-.328.6-.28.917.263.232.397.602.589.923.476.294-.104.734-.039.977.144.72.541 1.899.593 2.533.11.384-.292.591-.32.591-.081 0 .39 1.155.51 1.538.16.514-.472 3.078-.442 3.372.04.311.51 1.842.65 4.13.38.744-.088 1.83-.034 2.413.119.583.153 1.059.16 1.059.014 0-.145.403-.264.894-.264.492 0 .894.186.894.413 0 .493 1.346.883 1.509.437.061-.17.713-.435 1.447-.587 1.197-.247 1.334-.208 1.334.382 0 .582.154.631 1.341.428.737-.126 1.216-.114 1.063.026-.401.37 1.979 1.052 2.48.71.243-.166.511-.14.647.06.127.19.838.344 1.58.344.743 0 1.466.107 1.607.237.401.367 3.92.374 4.42.01.321-.235.447-.172.447.221 0 .439.34.544 1.698.527.934-.012 2.239.073 2.9.19.777.137 1.295.072 1.467-.183.204-.302.383-.292.765.044.725.636 2.354 1.242 2.638.982.444-.408 1.948-.263 2.145.207.152.364.303.379.71.07.515-.393 1.416-.174 1.116.27-.139.207.87.252 2.202.1.246-.029.46-.31.475-.625.023-.46.07-.476.237-.082.114.27.448.653.741.851.293.198.428.517.299.708-.145.214.026.284.448.183.375-.09 1.267.091 1.981.402.715.311 2.098.566 3.073.566.975 0 1.773.128 1.773.284 0 .156.241.284.536.284.295 0 .536-.163.536-.363 0-.2.242-.278.537-.174.295.104.536.046.536-.129 0-.521.978-.36 1.213.201.321.767.297.793-.702.793-.874 0-.889.028-.297.57.443.407.664.455.769.168.1-.274.523-.14 1.322.419.744.52 1.404.742 1.795.604.367-.128.746-.03.929.24.17.252.597.458.947.458.351 0 .658.185.682.41.025.225.065.533.09.685.124.768 3.262 1.38 3.262.635 0-.22.251-.073.557.328.306.402.469.86.361 1.02-.26.387.463.88 1.684 1.147.592.13 1.387.74 1.966 1.508.535.71 1.171 1.296 1.413 1.303.242.007.55.413.684.903.134.49.54 1.183.903 1.54.447.44.574.864.396 1.322-.144.37-.227 1.255-.184 1.965.044.71-.161 1.627-.454 2.038-.294.41-.534.972-.534 1.25 0 .276-.161.465-.358.42-.197-.045-.561.287-.81.738-.249.45-.812.965-1.251 1.143-.439.178-.798.577-.798.886 0 .309-.227.68-.505.823-.278.145-.56.705-.626 1.246-.087.717-.316.993-.84 1.017-.945.044-2.635.868-3.741 1.824-.487.421-.927.733-.979.693-.265-.206-3.586 1.163-4.297 1.77-.249.213-.452.562-.452.776 0 .223-.294.32-.688.225-.377-.09-1.186.113-1.796.454-.61.34-1.34.618-1.623.618-.284 0-1.111.48-1.838 1.065-.728.586-1.618 1.019-1.979.963-.462-.072-.656.1-.656.58 0 .576-.15.648-.953.464-.788-.182-.913-.126-.726.321.151.362.04.541-.337.541-.354 0-.487-.183-.357-.492.139-.334-.02-.491-.498-.491-.387 0-.704.123-.704.273 0 .15-.201.298-.447.329-3.929.491-5.91 1.185-6.057 2.122-.099.637-.162.656-.631.193-.531-.524-.549-.523-3.651.345-.721.202-1.914.438-2.651.524-.736.087-1.524.299-1.751.47-.226.173-1.365.41-2.532.529-1.177.12-2.873.583-3.81 1.04-1.356.664-1.792.748-2.212.428-.382-.29-.715-.303-1.237-.047-.393.193-1.263.35-1.934.35s-1.719.229-2.329.508c-.682.312-2.508.57-4.751.668-2.004.089-3.921.297-4.26.464-.34.167-1.726.327-3.08.357-1.353.03-3.109.25-3.9.492-.791.24-2.48.465-3.754.497-1.621.042-2.567.24-3.155.66-.729.52-.907.537-1.352.128-.374-.342-.75-.388-1.383-.167-.479.167-1.479.292-2.223.278-.743-.014-1.513.006-1.709.045-.197.04-.865.046-1.484.016s-1.232.102-1.361.295c-.13.192-.609.35-1.065.35-.456 0-1.026.217-1.266.482-.36.398-.519.407-.905.053-.581-.532-4.677-.4-5.433.176-.406.309-.581.3-.811-.041-.219-.326-1.296-.422-4.266-.38-4.342.061-5.748.368-5.764 1.259-.01.539-.04.537-.399-.031-.315-.496-.449-.528-.705-.164-.247.352-.359.305-.516-.22-.137-.455-.539-.694-1.252-.743-.577-.04-1.05.056-1.05.216s-.483.239-1.072.176c-.59-.063-1.073.019-1.073.182 0 .426-1.095.588-2.175.322-.694-.17-1.027-.074-1.343.39-.231.34-.693.618-1.025.618-.471 0-.51-.088-.176-.394.91-.834.414-1.081-2.08-1.04-1.379.023-2.592-.082-2.694-.234-.271-.403-1.888.36-2.068.975-.124.426-.162.412-.195-.074-.037-.538-.339-.593-2.812-.514-1.524.048-3.127.203-3.563.344-.466.15-.885.117-1.019-.082-.125-.186-.473-.251-.773-.146-.3.106-.726.064-.947-.094-1.16-.826-2.693-.535-3.175.603-.166.39-.214.373-.237-.087-.02-.41-.314-.575-1.011-.566-.54.008-1.38-.027-1.866-.077-.973-.099-1.508.942-.715 1.392.24.136.327.412.192.613-.354.526-.918.448-.918-.128 0-.27-.167-.491-.37-.491-.245 0-.234-.233.032-.69.387-.664.336-.685-1.418-.574-1.365.087-1.82.004-1.82-.334 0-.363-.103-.37-.535-.042-.326.248-.537.274-.537.067 0-.2-.926-.343-2.234-.346-1.229-.002-4.03-.053-6.225-.113-2.195-.06-3.917.002-3.825.138.221.328-.913-.066-1.961-.682-.61-.357-1.002-.4-1.43-.155-.33.189-.907.225-1.306.082-1.053-.377-3.733-.35-5.323.056-1.047.266-1.455.257-1.654-.04-.151-.223-1.17-.411-2.364-.437-1.74-.037-2.237.081-2.904.693-1 .917-1.69.979-1.089.096.507-.743.117-1.303-.508-.73-.616.565-1.161.476-.637-.104.245-.27.385-.5.312-.508-.073-.01-1.15-.099-2.393-.2-2.027-.163-2.355-.102-3.179.591l-.918.773.236-.902c.257-.982.28-.97-2.191-1.067-.836-.032-1.52.076-1.52.24 0 .166-.252.069-.561-.215-.31-.283-.846-.515-1.192-.515-.347 0-.733-.095-.858-.21-.126-.115-.837-.247-1.58-.292-3.429-.212-5.618-.52-6.056-.854-.354-.27-.627-.25-1.052.074-.487.37-.646.349-1.037-.141-.347-.435-.508-.473-.65-.152-.146.335-.254.34-.499.023-.172-.222-.686-.337-1.143-.257-.457.081-1.73-.143-2.83-.497-1.1-.355-2.287-.56-2.638-.459-.392.114-.64.02-.644-.246-.004-.318-.1-.302-.36.06-.304.421-.445.388-.978-.231-.343-.397-1.548-1.045-2.679-1.439-1.13-.394-2.055-.813-2.055-.932 0-.12-.563-.157-1.252-.083-1.15.123-1.25.064-1.25-.73 0-.702-.206-.901-1.1-1.065-.777-.142-1.373-.598-2.027-1.55-.51-.74-.89-1.397-.843-1.458.046-.062-.148-.283-.433-.492-.285-.209-.619-1.227-.742-2.261-.197-1.654-.137-1.93.494-2.292.395-.226.718-.744.718-1.152 0-.407.153-.74.34-.74.188 0 .609-.517.935-1.148.326-.631.817-1.147 1.09-1.147.272 0 .495-.186.495-.413 0-.227.321-.597.715-.823.393-.225.715-.686.715-1.024 0-.35.325-.693.76-.797.61-.146.713-.346.529-1.022-.225-.82.235-1.167.677-.511.122.18.355.328.52.328.444 0 .772-.987.473-1.423-.143-.21-.214-.639-.157-.954.056-.316-.078-.574-.298-.574-.22 0-.305.143-.187.318.118.175-.188.411-.681.524-.493.114-.993.487-1.111.83-.119.343-.366.623-.55.623-.183 0-.333.18-.333.4 0 .219-.428.736-.95 1.148-.523.412-1.128 1.08-1.343 1.486-.215.405-.91.957-1.544 1.228-.635.27-1.156.745-1.16 1.055-.005.365-.197.497-.544.375-.622-.219-.676.158-.19 1.33.286.69.223.895-.368 1.185-.392.193-.615.496-.494.676.121.179.014.552-.237.83-.339.375-.355.651-.063 1.08.24.353.269.756.074 1.039-.435.63-.416 2.266.027 2.266.196 0 .37.405.385.901.016.496.11.718.209.492.234-.532.768-.532.717 0-.066.692 1.295 2.869 1.794 2.869.258 0 .47.207.47.46 0 .29.25.402.67.301.458-.11.916.158 1.454.85.431.557 1.095 1.011 1.475 1.011.38 0 .69.222.69.492s.242.492.537.492c.295 0 .536.16.536.355 0 .195.202.288.447.205.246-.083.409-.31.362-.507-.047-.197.154-.273.447-.17.292.103.532.376.532.606 0 .41 2.042 1.478 2.824 1.478.217 0 .393.125.393.278 0 .153.499.29 1.109.307.61.016 1.395.267 1.745.558.428.354.945.457 1.573.313.549-.126.936-.078.936.117 0 .183.322.256.715.162.807-.194.938-.614.268-.862-.246-.091-.085-.177.357-.191.466-.015.805.168.805.434 0 .547 1.99 1.328 3.128 1.226.442-.04.804.066.804.233 0 .508 1.13.74 1.654.341.38-.29.491-.26.491.133 0 .382.546.55 2.235.69 1.229.1 2.692.167 3.253.148.918-.031 1-.125.82-.948-.14-.642-.036-.97.35-1.106.836-.294.946-.24.704.338-.17.408-.056.491.498.358.918-.22.925.142.015.743-.65.43-.66.512-.134 1.046.404.408.749.492 1.172.285.34-.168.816-.172 1.1-.012.274.156.614.219.755.14.14-.08.71.015 1.268.211.557.197 1.818.423 2.8.504.984.08 2.09.232 2.459.337.436.123.585.062.425-.174-.366-.544.358-.437.87.129.629.694 1.073.61 1.073-.204 0-.51.12-.61.447-.376.246.176.97.482 1.609.679 1.09.336 1.162.311 1.162-.406 0-.489.257-.826.714-.936.561-.134.648-.063.405.334-.54.884.757 1.692 2.703 1.684.946-.004 2.404.137 3.24.312.889.186 1.604.197 1.72.026.108-.162.027-.294-.181-.294s-.379-.115-.379-.256c0-.405 2.025-.998 2.495-.731.28.158.138.314-.409.456l-.835.215.814.627c1.033.797 6.08.914 6.4.149.255-.611.83-.589.83.032 0 .302.335.492.87.492.732 0 .865-.154.84-.967-.022-.707-.224-.994-.75-1.066-.628-.086-.651-.15-.18-.506.457-.345.672-.173 1.4 1.125l.859 1.533.203-.961c.111-.529.078-1.286-.074-1.683-.215-.56-.16-.681.244-.54.286.102.523.353.526.559.003.224.131.193.318-.077.439-.636 1.181-.116.918.643-.119.346-.056.628.14.628.197 0 .46.295.585.656.125.36.457.656.739.656s.512.147.512.328c0 .437 1.295.417 2.214-.034.566-.278.808-.259 1.044.082.238.344.308.316.312-.13.006-.684.974-.754 1.765-.127.31.246 1.168.532 1.905.636 1.045.146 1.34.078 1.34-.306 0-.495.87-.407 2.126.213.285.141.883.129 1.329-.027.486-.17.895-.156 1.023.033.311.463 2.587.385 2.763-.094.109-.296.29-.314.655-.064.278.19 1.43.384 2.56.429 1.816.072 2.154-.017 2.921-.777l.868-.859.117.758c.11.712.258.754 2.441.687a97.16 97.16 0 0 0 2.681-.105c.197-.019 2.554.068 5.239.192 4.58.212 4.892.188 5.053-.387.152-.54.177-.545.213-.038.037.511.436.718 1.188.617.544-.074 10.887-.442 11.813-.42.541.012.983-.116.983-.285 0-.185.329-.192.834-.015.459.16 1.048.17 1.309.022.263-.15.742-.116 1.075.075.374.214 1.129.244 1.999.079.768-.146 1.543-.233 1.722-.193.178.04.439-.099.58-.307.193-.286.444-.286 1.023-.002.423.207.915.294 1.093.192.179-.1 1.333-.256 2.565-.343 1.231-.088 2.342-.314 2.47-.503.127-.19.538-.338.914-.331.94.016 1.994.015 2.738-.004.344-.01.626-.229.626-.488 0-.26.241-.471.536-.471.295 0 .536.147.536.328 0 .18.232.327.514.327.366 0 .508-.383.494-1.327-.011-.73.08-1.418.201-1.53.122-.111.221.184.221.656 0 .96.684 2.53 1.101 2.53.67 0 1.402-.437 1.402-.836 0-.738.797-.937 1.288-.321.551.69 1.753.422 1.441-.322-.119-.286-.002-.489.283-.489.267 0 .579.221.692.492.113.27.573.475 1.022.454.605-.029.654-.077.19-.188-.727-.174-.848-.758-.158-.758.257 0 .78.21 1.161.465.489.328.824.364 1.141.124.315-.24.447-.228.447.041 0 .255.391.316 1.162.184 1.241-.213 1.662-.278 5.274-.821 1.278-.193 2.645-.485 3.038-.652.394-.166 1.117-.286 1.609-.267 1.278.05 3.694-.387 4.093-.74.187-.166.645-.301 1.018-.301.372 0 1.105-.276 1.627-.613.646-.416 1.176-.528 1.663-.35 1.131.413 1.604.35 1.381-.184-.13-.312.005-.492.369-.492.316 0 .574.147.574.328 0 .18.241.327.536.327.634 0 .64-.036.188-1.126-.227-.546-.227-.84 0-.84.192 0 .349.22.349.491 0 .27.308.492.685.492.377 0 .739.143.804.317.07.187.801.093 1.765-.225 1.244-.412 1.745-.786 2.055-1.54l.409-.995.545.713c.518.678.614.69 2.005.24.803-.26 1.581-.404 1.728-.32.147.082.196-.196.107-.62-.158-.758.639-1.62.882-.953.068.187.332.601.587.921.409.513.628.535 1.864.182.77-.22 2.082-.682 2.915-1.027.834-.345 1.762-.627 2.063-.627.301 0 1.185-.37 1.963-.82.779-.45 1.649-.82 1.934-.82.285 0 .73-.184.99-.41.26-.225 1.013-.449 1.673-.497.66-.049 1.54-.307 1.956-.574.416-.267 1.042-.486 1.392-.486.349 0 .635-.221.635-.492 0-.275.319-.491.726-.491.4 0 .82-.222.932-.492.114-.27.595-.492 1.071-.492.593 0 .971-.257 1.204-.82.332-.801 1.072-1.14 1.072-.491 0 .485.69.398 1.303-.164.295-.27.808-.492 1.141-.492.332 0 .763-.32.957-.71.194-.392.674-.871 1.066-1.066.392-.195 1.068-.687 1.502-1.093.434-.405.918-.744 1.075-.751.157-.008.687-.478 1.179-1.044a23.058 23.058 0 0 1 1.88-1.889c1.315-1.146 3.405-4.994 2.404-4.426-.724.41-.47-1.14.453-2.764.554-.978.882-1.863.728-1.967-.155-.105-.282-1.212-.282-2.459-.001-1.52-.148-2.313-.447-2.404-.245-.075-.446-.33-.446-.566 0-.236-.226-.509-.503-.606-.276-.097-.61-.628-.742-1.179-.132-.55-.388-1.086-.57-1.189-.182-.103-.336-.51-.343-.905-.007-.395-.369-1.093-.804-1.551-1.084-1.14-3.473-2.722-3.473-2.299 0 .19-.241.345-.536.345-.295 0-.537-.124-.537-.275 0-.152-.402-.444-.893-.65-.492-.205-.898-.634-.903-.954-.009-.593-2.041-1.728-3.095-1.728-.314 0-.8-.258-1.08-.573-.35-.395-.564-.452-.687-.185-.121.264-.412.176-.902-.274-.503-.461-.988-.603-1.587-.465-.484.111-.863.053-.863-.131 0-.535-2.564-1.858-4.111-2.121-.786-.134-1.595-.368-1.796-.52-.741-.562-4.475-1.528-7.085-1.834a27.924 27.924 0 0 1-2.648-.452c-.787-.187-1.162-.161-1.162.082 0 .197-.362.052-.805-.323-.504-.428-1.47-.742-2.592-.844a39.103 39.103 0 0 1-3.575-.53c-.983-.202-2.719-.425-3.858-.496-1.139-.07-2.265-.27-2.502-.444-.238-.173-1.558-.328-2.935-.345-2.466-.03-3.052-.097-4.111-.47-.962-.339-4.29-.477-4.29-.178 0 .16-.297.145-.66-.033-.454-.223-.789-.206-1.073.054-.311.286-.412.266-.412-.078 0-.332-.122-.303-.45.108-.508.637-1.947.576-2.403-.1-.196-.291-.664-.366-1.418-.227-.767.14-1.05.092-.887-.15.15-.223-.067-.205-.58.047-.678.333-.889.314-1.224-.106-.364-.456-.447-.451-.812.04-.377.509-.408.507-.427-.025-.012-.315-.062-.587-.111-.603-.049-.016-1.688-.095-3.642-.175-1.954-.08-3.749-.295-3.99-.478-.299-.228-.517-.215-.689.04-.164.243-.704.29-1.551.136-2.214-.406-3.624-.373-3.624.085 0 .232-.161.421-.357.421-.197 0-.317-.165-.268-.368.049-.203-.313-.41-.805-.458a11.224 11.224 0 0 1-1.698-.325c-.609-.179-.804-.108-.804.293 0 .292.188.53.417.53.229 0 .297.111.149.246-.147.135-.47-.008-.717-.319-.611-.766-2.277-.82-3.733-.12-.948.455-1.29.492-1.609.173-.307-.304-.297-.347.041-.172.274.142.447.034.447-.28 0-.28-.206-.511-.457-.511-.556 0-2.06.893-2.671 1.586-.389.44-.447.41-.447-.234 0-.591-.144-.699-.715-.532-.51.148-.715.059-.715-.311 0-.38-.312-.503-1.162-.458-.639.035-1.422.18-1.741.322-.318.143-.676.17-.795.061-.119-.11-1.692-.24-3.496-.292-2.48-.07-3.483.029-4.117.41-.702.422-.868.43-1.028.047-.2-.48-1.514-.563-2.253-.144-.24.135-.359.36-.265.498.093.138-.05.54-.319.89-.417.546-1.606.748-2.699.458-.302-.08 1.588-.769 1.92-.7.172.036.212-.174.09-.467-.123-.292-.223-.668-.223-.835 0-.176-1.162-.223-2.771-.111-3.267.226-3.209.227-4.468-.049-.753-.165-.983-.095-.983.295 0 .453-.112.457-.984.04-1.346-.643-4.021-.602-5.081.08-.611.392-.903.44-1.004.163-.207-.571-2.062-.474-2.614.136-.433.478-.527.468-1.04-.112-.479-.543-.633-.57-1.029-.181Zm4.601.915c0 .27-.16.51-.357.533l-.728.082c-.204.023-.523.262-.71.533-.48.697-.463-.177.02-1.005.436-.747 1.775-.854 1.775-.143Zm-18.947.637c0 .08-.161.235-.358.347-.196.111-.357.046-.357-.145 0-.19.16-.347.357-.347.197 0 .358.065.358.145ZM70.966 3.91c-.352.522-.918.097-.669-.501.138-.329.333-.392.562-.182.192.177.24.484.106.683Zm87.393-.469c0 .27-.236.492-.525.492-.32 0-.445-.192-.319-.492.113-.27.349-.491.525-.491.175 0 .319.221.319.491Zm3.728-.245a4.152 4.152 0 0 0-.59.573c-.153.188-.269.082-.273-.246a.576.576 0 0 1 .591-.573c.327 0 .45.11.272.246Zm-92.746.737c0 .18-.161.328-.358.328-.196 0-.357-.147-.357-.328 0-.18.16-.328.357-.328.197 0 .358.148.358.328Zm11.343-.13c-.119.11-.427.121-.685.026-.285-.104-.2-.182.216-.198.377-.014.588.064.469.172Zm86.97.483c0 .155-.241.197-.536.094-.295-.104-.536-.316-.536-.472 0-.155.241-.197.536-.093.295.103.536.316.536.471Zm7.508-.353c0 .18-.282.326-.626.323-.535-.004-.548-.051-.089-.323.674-.4.715-.4.715 0ZM62.727 4.59c.122.18.05.328-.158.328-.208 0-.378-.148-.378-.328 0-.18.07-.328.157-.328s.257.148.379.328Zm93.487 0c0 .18-.171.328-.379.328s-.279-.148-.157-.328c.121-.18.291-.328.378-.328.087 0 .158.148.158.328Zm8.921.802c.325.359.34.51.049.51-.227 0-.505-.222-.618-.492-.113-.27-.43-.492-.704-.492-.274 0-.498-.153-.498-.34 0-.424 1.114.087 1.771.814Zm-4.728-.604c-.119.109-.427.12-.685.026-.285-.105-.2-.182.216-.198.377-.014.588.063.469.172ZM55.637 5.792c-.466.427-.23 1.093.387 1.088.495-.004.522-.065.133-.291-.271-.158-.382-.45-.247-.65.27-.402.102-.491-.273-.147Zm117.998.963c-.119.109-.428.12-.685.026-.286-.105-.201-.182.216-.198.376-.014.587.063.469.172Zm1.169.458c0 .18-.161.328-.357.328-.197 0-.358-.148-.358-.328 0-.18.161-.328.358-.328.196 0 .357.147.357.328Zm3.933.164c0 .27-.161.491-.358.491-.197 0-.357-.22-.357-.491 0-.27.16-.492.357-.492.197 0 .358.221.358.492Zm10.01.675c0 .28-.161.42-.358.308-.196-.111-.357-.341-.357-.51 0-.17.161-.31.357-.31.197 0 .358.23.358.512Zm13.227 2.931c0 .27-.241.492-.536.492-.295 0-.536-.221-.536-.492 0-.27.241-.492.536-.492.295 0 .536.222.536.492Zm12.392 2.869c-.099.225-.18.04-.18-.41 0-.45.081-.635.18-.41a1.17 1.17 0 0 1 0 .82ZM45.924 17.704c-.121.18-.05.328.158.328.208 0 .379-.148.379-.328 0-.18-.071-.328-.158-.328-.087 0-.257.148-.379.328Zm-4.77 1.311c0 .451.082.636.18.41.1-.225.1-.594 0-.82-.098-.225-.18-.04-.18.41Zm-7.497.398c-.557.511-.543 1.008.023.82.246-.082.718.068 1.05.332.332.265.774.385.983.266.51-.288.484-.832-.039-.832-.23 0-.683-.22-1.006-.487-.453-.376-.684-.399-1.011-.099Zm-4.808 1.438c-.118.108-.128.402-.023.654.154.367-.125.418-1.407.257-1.018-.128-1.689-.068-1.846.165-.136.202-.077.367.131.367.208 0 .379.35.379.779 0 .612.191.778.894.778.63 0 .893-.178.893-.603 0-.664.996-1.277 1.699-1.046.299.098.367-.043.207-.426-.163-.39-.107-.498.179-.336.23.13.418.097.418-.075s-.255-.402-.566-.511c-.694-.244-.696-.244-.958-.003Zm2.239.702c0 .605.66.805 1.338.406.507-.299.516-.339.046-.207-.32.09-.762-.003-.983-.205-.296-.272-.401-.27-.401.006Zm-7.686 1.069c-.122.18-.05.328.157.328.208 0 .379.209.379.464 0 .673.826.825 1.297.239.304-.38.288-.608-.064-.93-.555-.51-1.46-.56-1.77-.101Zm-2.414.881c-.344.083-.625.417-.625.742s-.271.794-.603 1.042c-.525.391-.575.379-.38-.097.132-.326.015-.62-.29-.728-.283-.099-.515-.037-.515.137 0 .175-.241.318-.536.318-.295 0-.536.143-.536.317 0 .175-.225.239-.5.142-.799-.281-.9.304-.17.992.59.556.67.566.67.082 0-.302.241-.55.536-.55.295 0 .536.232.536.515 0 .861 1.543.426 1.827-.515.155-.515.26-.606.283-.245.04.64.58.764.948.217.132-.196.541-.284.91-.196.545.13.605.054.329-.42-.186-.32-.241-.67-.122-.78.238-.218-.55-1.222-.911-1.16a19.76 19.76 0 0 0-.85.187Zm2.235 1.086c-.458.271-.446.319.09.323.344.003.625-.143.625-.323 0-.4-.04-.4-.715 0Zm-9.365 2.45c-1.84 1.088-2.034 1.367-1.092 1.58.344.077.103.08-.536.008-1.203-.138-1.6.328-.586.685.367.128.51.441.392.854-.103.359-.04.652.138.652.178 0 .324-.295.324-.655 0-.715.263-.804 1.04-.353.586.34 1.82-.246 1.82-.863 0-.236.26-.326.625-.219.505.15.527.12.113-.149-.419-.272-.43-.426-.059-.836.37-.408.365-.616-.022-1.1-.455-.568-.561-.549-2.157.395Zm-7.259 7.058c.123.183-.144.325-.605.323-.664-.005-.72-.068-.289-.323.666-.394.628-.394.894 0Zm208.782 8.524c.121.18-.04.328-.358.328s-.479-.148-.357-.328c.121-.18.282-.328.357-.328.075 0 .236.148.358.328Zm-6.133 3.456c-.117.279-.289.436-.382.35-.094-.086-.065-.313.065-.506.352-.523.558-.421.317.156Zm-1.073 1.968c-.116.278-.288.435-.382.35-.094-.087-.064-.314.065-.507.353-.523.559-.421.317.157Zm-8.346 1.133c0 .18-.17.328-.378.328s-.28-.148-.158-.328c.122-.18.292-.328.379-.328.087 0 .157.148.157.328Zm1.252 0c.121.18-.03.328-.337.328-.306 0-.557-.148-.557-.328 0-.18.151-.328.336-.328.185 0 .436.148.558.328Zm-23.774 6.557c0 .18-.161.328-.358.328-.197 0-.357-.148-.357-.328 0-.18.16-.328.357-.328.197 0 .358.148.358.328ZM39.072 58.718c.164.113.044.294-.268.403-.408.144-.566.004-.566-.5 0-.385.12-.567.268-.404.147.163.402.389.566.501Zm6.22.493c-.12.11-.428.121-.686.026-.285-.104-.2-.182.216-.198.377-.014.588.064.47.172Zm87.684 1.278c0 .282-.322.492-.758.492-.635 0-.686-.081-.314-.492.245-.27.586-.492.758-.492.173 0 .314.221.314.492Zm-39.146.164c.121.18-.04.328-.358.328s-.479-.148-.357-.328c.121-.18.282-.328.357-.328.075 0 .236.147.358.328Zm-14.122.124c0 .068-.241.307-.536.532-.44.334-.536.311-.536-.124 0-.293.241-.532.536-.532.295 0 .536.056.536.124Zm23.596.02c0 .08-.161.236-.358.348-.197.111-.357.046-.357-.145 0-.19.16-.347.357-.347.197 0 .358.065.358.144Zm-15.88.84c.28 0 .507.294.507.655 0 .36-.092.656-.204.656-.411 0-1.05-.837-1.126-1.476-.044-.36.01-.47.119-.245.109.225.426.41.704.41Zm-14.866.655c0 .423.181.655.447.574.246-.075.447-.334.447-.574 0-.24-.2-.499-.447-.574-.266-.081-.447.151-.447.574Zm22.767.062c-.114.261-.199.183-.216-.199-.015-.345.07-.539.188-.43.119.109.131.392.028.629Zm1.007.922c.122.18-.03.327-.336.327-.307 0-.558-.147-.558-.327 0-.18.152-.328.337-.328.185 0 .436.147.557.328Z" fill="#6966FF"/></svg>