<svg width="129" height="36" viewBox="0 0 129 36" fill="none" xmlns="http://www.w3.org/2000/svg"><path fill-rule="evenodd" clip-rule="evenodd" d="M53.755.314c-.185.181-.335.2-.512.065-.346-.263-1.882.431-2.127.963-.14.303-.156.226-.064-.305l.123-.71-.878.142c-1.285.206-1.658.228-1.879.112-.285-.15-1.566-.026-1.838.18-.151.114-.261.092-.32-.064-.07-.19-.218-.193-.747-.014-.45.152-.778.165-1.03.042-.282-.139-.466-.093-.777.192-.34.311-.551.352-1.258.242-.467-.073-.94-.104-1.05-.07-.11.033-.697.086-1.304.117-1.753.09-1.804.097-1.804.245 0 .077-.285.102-.632.055-.566-.076-.62-.043-.52.308.075.264.019.393-.17.393a.28.28 0 0 1-.283-.276c0-.184-.2-.276-.601-.276-.348 0-.602.097-.602.23 0 .142-.31.239-.812.254-.924.028-1.217.193-.786.443.2.115.214.171.044.173-.137.002-.25.127-.25.28 0 .15-.136.275-.301.275-.165 0-.3-.124-.3-.276 0-.152.09-.276.2-.276.11 0 .2-.083.2-.184 0-.277-.543-.22-.664.07-.065.154-.294.22-.585.169-.442-.078-.472-.035-.396.562.078.614.574 1.044.827.716.064-.082.365-.164.668-.182.303-.018.664-.042.802-.053.138-.012.454.036.702.106.337.094.45.052.45-.166 0-.239.096-.26.515-.114.774.27 1.491.224 1.491-.096 0-.172.19-.276.501-.276.293 0 .502.106.502.254 0 .348 1.586.37 1.73.024.058-.138.347-.246.641-.241 1.02.018 1.238-.038 1.238-.321 0-.156.113-.27.25-.254.138.016.457.02.71.008.392-.019.427-.074.245-.385-.173-.297-.156-.344.093-.257.168.06.306.223.306.364s.126.256.28.256a.47.47 0 0 1 .393.273c.167.401 2.586.295 3.136-.138.424-.333.907-.438.717-.156-.06.09.117.203.394.251.277.049.552.016.613-.073.06-.09.193-.115.296-.057.102.058.186.018.186-.089s.186-.195.413-.195c.227 0 .357.083.29.184-.077.113.208.173.74.157.575-.019.683-.053.323-.104-.385-.053-.507-.156-.423-.355.064-.154.172-.211.24-.127.189.237.986.613 1.301.613.155 0 .698-.36 1.206-.8.632-.547.923-.705.923-.499 0 .165-.272.448-.605.628-.681.37-.624.671.127.671.321 0 .451-.075.362-.207-.1-.148-.038-.155.217-.024.452.232 1.102.084 1.102-.25 0-.14.09-.254.2-.254.11 0 .201.11.201.245 0 .384 2.362.34 2.475-.046.07-.24.09-.235.109.03.026.371.434.424.785.102.182-.168.24-.169.24-.004 0 .24 3.522.23 3.944-.012.128-.074.279-.03.335.097.078.177.15.168.305-.036.111-.147.158-.332.105-.412-.054-.079.042-.095.213-.035.172.06.312.207.312.327 0 .237.383.29 1.905.269a81.38 81.38 0 0 1 2.606.027c2.81.073 2.984.065 3.063-.152.054-.148.17-.13.377.06.377.347 1.618.354 2.503.015.584-.223.731-.223 1.065 0 .474.318.887.347.552.04-.328-.3-.303-.515.06-.515.165 0 .3.124.3.275 0 .152.159.283.351.291.193.008.622.035.953.059.33.024.668-.045.749-.153.098-.131.148-.12.15.033.002.127.206.229.454.227.314-.002.372-.049.191-.154-.209-.121-.202-.195.037-.377.24-.183.336-.156.513.148.13.223.338.33.518.267a.658.658 0 0 1 .548.08c.404.304 1.065.333 1.42.062.216-.163.332-.18.332-.045 0 .219.648.286.863.09.288-.265 1.726-.248 1.891.022.175.286 1.034.365 2.317.213.417-.05 1.026-.02 1.353.067.327.086.594.09.594.008 0-.081.226-.148.502-.148.275 0 .5.104.5.231 0 .277.756.495.847.245.035-.095.4-.243.812-.329.671-.138.748-.116.748.215 0 .326.086.354.752.24.414-.071.682-.065.596.014-.224.208 1.11.59 1.391.398.136-.093.287-.078.363.034.071.106.47.193.887.193.416 0 .822.06.9.133.225.206 2.199.21 2.48.005.18-.131.251-.096.251.125 0 .245.19.305.952.295.524-.007 1.256.041 1.626.107.436.076.727.04.823-.103.115-.17.215-.164.429.024.407.357 1.32.697 1.48.551.249-.229 1.092-.147 1.203.117.085.204.17.212.398.038.289-.22.794-.097.626.152-.078.116.488.142 1.235.056.138-.016.258-.174.266-.35.013-.258.04-.267.133-.047.065.152.252.367.416.478.164.111.24.29.168.397-.082.12.014.16.251.103.21-.05.71.05 1.111.225s1.177.318 1.724.318c.546 0 .994.071.994.159 0 .088.135.16.301.16.165 0 .3-.092.3-.204 0-.112.136-.156.301-.098.166.058.301.026.301-.072 0-.293.549-.202.68.113.18.43.167.444-.394.444-.49 0-.498.016-.166.32.249.228.373.255.431.094.056-.154.294-.079.742.235.417.292.787.416 1.007.34.205-.073.418-.018.521.134.095.14.334.256.531.256s.369.104.382.23c.014.127.037.3.051.384.07.431 1.829.774 1.829.357 0-.124.141-.041.313.184.172.225.263.482.202.572-.146.217.26.493.945.643.331.073.777.415 1.102.846.301.398.657.727.793.73.136.005.308.232.384.507.075.275.303.663.506.864.251.247.322.485.222.741-.081.208-.127.704-.103 1.102.024.399-.091.913-.255 1.143-.164.23-.299.546-.299.701 0 .155-.09.262-.201.236-.11-.025-.315.161-.454.414-.14.253-.456.541-.702.641-.246.1-.448.324-.448.497a.574.574 0 0 1-.283.462c-.156.08-.314.395-.351.699-.049.402-.177.556-.471.57-.53.025-1.478.487-2.098 1.023-.273.236-.52.411-.549.388-.149-.115-2.011.653-2.41.994-.14.119-.254.315-.254.435 0 .125-.165.179-.386.126-.211-.051-.665.063-1.007.254-.342.19-.752.347-.911.347-.159 0-.622.269-1.03.597-.408.329-.908.572-1.11.54-.259-.04-.368.056-.368.326 0 .323-.084.364-.534.26-.443-.102-.513-.07-.408.18.085.203.022.304-.189.304-.198 0-.273-.103-.2-.276.078-.188-.011-.276-.28-.276-.217 0-.394.069-.394.153 0 .085-.113.168-.251.185-2.204.275-3.315.665-3.397 1.19-.056.357-.091.368-.354.108-.298-.294-.308-.293-2.048.194-.404.113-1.073.245-1.487.294-.413.048-.855.167-.982.264-.126.096-.766.23-1.42.296-.66.067-1.612.327-2.137.584-.76.372-1.005.419-1.24.24-.215-.163-.401-.17-.694-.027-.22.108-.709.197-1.085.197s-.964.128-1.306.284c-.383.175-1.407.32-2.665.375-1.124.05-2.199.167-2.39.26-.19.094-.967.184-1.727.2-.759.017-1.743.14-2.187.276-.444.135-1.391.26-2.105.28-.91.023-1.44.134-1.77.369-.41.292-.509.301-.759.072-.209-.192-.42-.217-.775-.094-.269.094-.83.164-1.247.156-.417-.008-.848.004-.959.026-.11.021-.484.025-.832.008-.347-.017-.69.058-.763.166-.073.108-.342.196-.598.196-.255 0-.575.122-.71.27-.201.224-.29.23-.507.03-.326-.298-2.623-.224-3.047.1-.228.172-.326.167-.455-.024-.123-.183-.727-.237-2.393-.213-2.435.034-3.224.206-3.233.706-.006.302-.022.3-.224-.018-.176-.278-.251-.295-.395-.092-.139.198-.201.172-.29-.123-.076-.255-.301-.389-.701-.417-.324-.022-.59.032-.59.122s-.27.133-.6.098c-.332-.035-.602.011-.602.103 0 .238-.615.33-1.22.18-.39-.096-.576-.041-.754.22-.13.19-.388.345-.575.345-.263 0-.285-.049-.098-.22.51-.468.232-.607-1.167-.584-.773.013-1.454-.046-1.51-.131-.153-.226-1.06.201-1.16.547-.07.239-.091.23-.11-.042-.021-.301-.19-.333-1.577-.288-.855.027-1.754.114-1.998.193-.262.084-.497.066-.572-.046-.07-.104-.265-.141-.434-.082-.168.06-.407.036-.53-.053-.651-.463-1.511-.3-1.782.338-.093.22-.12.21-.133-.049-.01-.23-.176-.322-.567-.316a11.32 11.32 0 0 1-1.046-.044c-.546-.055-.846.529-.401.78.135.077.183.232.108.344-.2.295-.515.252-.515-.071 0-.152-.094-.276-.208-.276-.137 0-.131-.13.018-.386.217-.373.189-.385-.795-.322-.766.048-1.02.002-1.02-.188 0-.203-.059-.208-.301-.023-.183.139-.301.153-.301.037 0-.112-.52-.192-1.253-.194-.69-.001-2.26-.03-3.492-.063-1.231-.034-2.196 0-2.145.077.124.184-.512-.037-1.1-.382-.342-.2-.562-.225-.802-.087-.185.105-.509.126-.733.046-.59-.212-2.093-.196-2.985.03-.587.15-.816.145-.928-.02-.084-.126-.656-.232-1.326-.246-.975-.021-1.254.045-1.628.388-.561.515-.948.55-.61.054.283-.417.065-.73-.286-.41-.345.317-.651.267-.357-.058.137-.151.216-.28.175-.285-.041-.005-.645-.055-1.343-.111-1.136-.092-1.32-.058-1.782.33l-.516.434.133-.506c.144-.55.157-.544-1.229-.598-.469-.018-.852.042-.852.135 0 .092-.142.038-.315-.121-.174-.16-.474-.29-.669-.29-.194 0-.41-.052-.481-.117-.07-.064-.469-.138-.885-.164-1.924-.119-3.152-.292-3.398-.479-.198-.15-.351-.14-.59.042-.273.208-.362.196-.581-.08-.195-.243-.285-.264-.364-.084-.083.188-.143.19-.28.013-.097-.125-.386-.19-.642-.144-.256.045-.97-.08-1.587-.28-.617-.198-1.283-.314-1.48-.257-.22.064-.359.01-.36-.138-.003-.178-.056-.17-.203.034-.17.236-.25.217-.548-.13-.192-.223-.868-.586-1.503-.807-.634-.22-1.152-.456-1.152-.523 0-.066-.316-.087-.702-.046-.646.07-.702.036-.702-.41 0-.393-.115-.505-.617-.597-.435-.08-.77-.335-1.137-.869-.286-.415-.499-.784-.473-.818.027-.035-.083-.159-.242-.276-.16-.117-.347-.688-.416-1.268-.11-.928-.077-1.083.277-1.286.221-.126.402-.417.402-.645 0-.229.086-.416.191-.416.105 0 .341-.29.525-.643.183-.354.458-.644.61-.644.153 0 .278-.104.278-.232 0-.127.18-.335.401-.46.221-.127.401-.386.401-.575 0-.197.183-.389.426-.447.343-.082.401-.194.297-.573-.126-.46.132-.655.38-.287.068.1.2.183.291.183.25 0 .434-.553.266-.797-.08-.118-.12-.359-.088-.536.032-.177-.043-.321-.167-.321-.124 0-.171.08-.105.178.066.098-.106.23-.382.294-.276.064-.557.273-.623.465-.067.192-.205.35-.308.35-.103 0-.187.1-.187.224 0 .123-.24.413-.533.644-.294.231-.632.606-.753.833-.12.227-.51.538-.866.69-.356.151-.648.417-.65.591-.004.205-.111.279-.306.21-.349-.122-.379.089-.107.746.161.387.125.502-.206.665-.22.108-.345.278-.277.379.068.1.008.31-.133.465-.19.21-.2.366-.035.606.135.198.15.424.041.583-.244.353-.233 1.27.015 1.27.11 0 .208.228.217.506.008.278.06.403.116.276.132-.298.431-.298.403 0-.037.388.726 1.61 1.006 1.61.145 0 .263.116.263.258 0 .162.14.225.376.168.257-.061.514.089.816.477.242.312.614.567.827.567.213 0 .387.124.387.276 0 .152.136.276.301.276.166 0 .301.09.301.199 0 .11.113.161.25.115.139-.046.23-.174.204-.284-.027-.11.086-.154.25-.096.164.058.299.211.299.34 0 .23 1.145.83 1.584.83.121 0 .22.07.22.155 0 .086.28.163.622.172.342.01.782.15.979.313.24.199.53.257.882.176.308-.071.525-.044.525.065 0 .103.18.144.4.09.454-.108.527-.343.151-.482-.137-.051-.047-.1.2-.107.262-.009.452.094.452.243 0 .307 1.117.745 1.754.688.248-.022.452.036.452.13 0 .285.633.416.927.192.213-.163.276-.146.276.074 0 .214.306.309 1.253.387.69.057 1.51.094 1.824.084.515-.018.561-.071.46-.532-.078-.36-.02-.544.197-.62.469-.166.53-.136.395.189-.096.229-.032.275.279.2.515-.123.519.08.008.417-.364.241-.37.288-.075.587.227.229.42.276.657.16.191-.094.458-.097.617-.007.154.088.345.123.424.078.079-.045.399.009.711.119.313.11 1.02.237 1.57.283.552.045 1.173.13 1.38.188.244.07.328.035.238-.097-.206-.305.201-.245.488.072.353.39.602.342.602-.114 0-.286.067-.342.25-.211.138.099.544.27.903.38.611.19.652.175.652-.227 0-.274.144-.463.4-.525.315-.075.363-.035.228.188-.303.496.424.948 1.515.944a10.5 10.5 0 0 1 1.818.175c.498.104.9.11.964.014.061-.09.015-.164-.101-.164-.117 0-.213-.065-.213-.144 0-.227 1.136-.56 1.4-.41.156.089.077.176-.23.256l-.468.12.456.352c.58.447 3.41.513 3.59.084.143-.343.466-.33.466.018 0 .17.187.276.487.276.41 0 .486-.087.471-.543-.012-.396-.125-.557-.42-.598-.352-.048-.365-.084-.101-.283.256-.194.377-.097.785.63l.482.86.114-.539c.062-.296.043-.721-.042-.944-.12-.314-.09-.382.137-.302.16.056.294.197.295.313.002.126.074.108.178-.043.247-.357.663-.065.516.36-.067.194-.032.353.078.353s.258.165.328.368c.07.202.257.367.415.367.157 0 .287.083.287.184 0 .245.726.234 1.242-.019.317-.155.453-.145.585.046.133.194.172.178.175-.073.004-.383.546-.422.99-.07.174.138.655.298 1.068.356.587.082.752.044.752-.172 0-.277.487-.228 1.193.12.16.079.494.072.745-.015.272-.095.502-.088.573.018.175.26 1.452.216 1.55-.053.061-.166.163-.175.368-.035.156.107.802.215 1.435.24 1.019.04 1.208-.01 1.639-.435l.486-.482.066.425c.062.4.145.423 1.37.385a54.926 54.926 0 0 0 1.503-.059c.11-.01 1.432.038 2.938.108 2.569.119 2.744.105 2.834-.217.085-.303.1-.306.12-.022.02.287.244.404.666.347.305-.042 6.106-.248 6.626-.236.303.007.551-.065.551-.16 0-.104.185-.107.468-.008.257.09.588.095.734.012.148-.084.416-.065.603.042.21.12.633.137 1.12.044.432-.081.867-.13.967-.108.1.022.246-.055.325-.172.108-.16.25-.16.574-.001.237.116.513.165.613.108.1-.057.748-.144 1.438-.193.691-.05 1.314-.176 1.386-.282.071-.106.302-.19.513-.186.527.01 1.118.009 1.535-.002.193-.005.351-.128.351-.273 0-.146.136-.265.301-.265.165 0 .3.083.3.184 0 .101.13.184.289.184.205 0 .285-.215.277-.744-.006-.41.045-.796.113-.859.068-.062.124.103.124.368 0 .538.383 1.419.617 1.419.376 0 .787-.245.787-.469 0-.414.447-.525.722-.18.31.388.983.237.808-.18-.067-.16-.001-.274.159-.274.15 0 .325.124.388.275.064.152.321.267.573.255.34-.016.367-.043.106-.105-.407-.098-.475-.425-.088-.425.144 0 .437.117.651.26.275.184.463.205.64.07.177-.135.251-.128.251.023 0 .143.22.177.652.103.696-.12.932-.156 2.957-.46.717-.108 1.484-.273 1.705-.366.22-.093.626-.16.902-.15.717.028 2.072-.217 2.296-.415.105-.093.361-.169.57-.169.21 0 .62-.154.913-.343.362-.234.66-.297.933-.197.634.232.9.196.775-.103-.074-.175.002-.276.206-.276.178 0 .323.083.323.184 0 .1.135.184.3.184.356 0 .359-.02.106-.632-.128-.307-.128-.472 0-.472.107 0 .195.124.195.276 0 .152.173.276.384.276.212 0 .415.08.452.178.039.105.449.052.989-.126.698-.231.979-.441 1.153-.864l.229-.558.306.4c.29.38.345.386 1.124.134.451-.146.887-.227.97-.18.082.047.109-.11.06-.347-.089-.425.358-.908.494-.534.038.104.186.337.33.516.229.288.352.3 1.045.102a18.35 18.35 0 0 0 1.635-.576c.468-.193.988-.352 1.157-.352.169 0 .665-.206 1.101-.46.437-.252.925-.46 1.085-.46.159 0 .409-.103.555-.229.146-.126.568-.252.938-.279.371-.027.864-.172 1.098-.322.233-.15.584-.272.78-.272.196 0 .357-.125.357-.276 0-.155.178-.276.407-.276.224 0 .459-.124.523-.276.063-.152.333-.276.6-.276.333 0 .544-.144.675-.46.187-.45.602-.64.602-.275 0 .272.387.223.73-.092.166-.152.454-.276.64-.276.187 0 .428-.18.537-.399.109-.219.378-.488.598-.597.22-.11.599-.385.842-.613.244-.227.515-.417.603-.421.088-.005.386-.268.662-.586.275-.318.75-.794 1.054-1.06.737-.642 1.91-2.8 1.348-2.482-.406.23-.263-.64.254-1.55.311-.548.495-1.045.409-1.103-.087-.06-.158-.68-.158-1.38-.001-.852-.083-1.296-.251-1.348-.138-.042-.25-.185-.25-.317 0-.133-.127-.285-.282-.34-.155-.055-.343-.352-.417-.661-.074-.31-.217-.61-.319-.667-.102-.058-.189-.286-.193-.508-.004-.221-.207-.613-.451-.87-.608-.64-1.948-1.526-1.948-1.289 0 .106-.135.193-.3.193-.166 0-.301-.07-.301-.154 0-.085-.226-.249-.501-.364-.276-.115-.504-.356-.507-.535-.005-.333-1.144-.97-1.735-.97-.177 0-.449-.144-.606-.321-.196-.221-.317-.254-.386-.104-.068.148-.231.099-.506-.154-.282-.258-.554-.338-.89-.26-.271.062-.483.03-.483-.074 0-.3-1.439-1.042-2.306-1.19-.441-.075-.895-.206-1.008-.292-.415-.314-2.51-.856-3.974-1.028a15.736 15.736 0 0 1-1.485-.253c-.441-.105-.652-.09-.652.046 0 .11-.203.029-.451-.182-.283-.24-.824-.416-1.453-.473a21.921 21.921 0 0 1-2.006-.297 18.866 18.866 0 0 0-2.163-.278c-.639-.04-1.271-.152-1.404-.249s-.874-.184-1.646-.194c-1.383-.017-1.712-.054-2.306-.263-.54-.19-2.406-.268-2.406-.1 0 .09-.166.081-.37-.019-.255-.125-.443-.115-.602.03-.174.16-.231.15-.231-.043 0-.186-.069-.17-.252.06-.285.358-1.092.324-1.348-.056-.11-.163-.373-.205-.796-.127-.43.079-.589.052-.497-.084.084-.125-.037-.115-.325.026-.38.187-.499.177-.687-.06-.204-.255-.25-.252-.455.023-.211.286-.23.285-.24-.014-.007-.177-.034-.329-.062-.338A76.222 76.222 0 0 0 87.327.62C86.231.576 85.225.455 85.09.353c-.168-.128-.29-.12-.387.022-.092.137-.395.163-.87.076C82.591.224 81.801.243 81.801.5c0 .13-.09.237-.2.237-.111 0-.179-.094-.151-.207.028-.114-.176-.23-.451-.257a6.282 6.282 0 0 1-.953-.182c-.341-.1-.45-.06-.45.164 0 .164.104.298.233.298s.167.062.084.137c-.083.076-.264-.004-.402-.178-.343-.43-1.277-.46-2.094-.068-.532.255-.724.276-.903.097-.172-.17-.166-.194.023-.096.154.08.251.019.251-.157 0-.158-.115-.287-.256-.287-.312 0-1.156.5-1.498.89-.219.247-.251.23-.251-.132 0-.331-.081-.392-.401-.298-.286.083-.401.033-.401-.175 0-.213-.175-.282-.652-.256-.358.02-.797.1-.976.18-.179.08-.38.096-.446.034-.067-.061-.95-.135-1.96-.164-1.392-.04-1.955.017-2.31.23-.394.237-.487.241-.576.027-.113-.269-.85-.316-1.265-.081-.134.076-.2.202-.148.28.052.077-.028.302-.179.5-.234.305-.9.418-1.514.255-.17-.044.89-.43 1.078-.392.096.02.118-.098.05-.262a1.606 1.606 0 0 1-.125-.468c0-.099-.652-.125-1.554-.063-1.833.127-1.8.128-2.507-.027-.422-.093-.551-.054-.551.165 0 .254-.063.257-.551.023-.755-.361-2.256-.338-2.85.044-.343.22-.507.247-.563.092-.117-.32-1.157-.266-1.467.077-.243.268-.295.262-.583-.064-.269-.304-.355-.32-.577-.101Zm2.58.513c0 .152-.09.287-.2.3l-.408.045c-.115.013-.294.147-.398.3-.27.39-.26-.1.011-.565.245-.419.996-.479.996-.08Zm-10.627.357c0 .045-.09.133-.2.195-.11.063-.2.026-.2-.081s.09-.195.2-.195c.11 0 .2.037.2.081Zm-5.906 1.01c-.197.292-.514.054-.374-.281.077-.185.186-.22.315-.102.108.099.134.27.06.383ZM88.82 1.93c0 .151-.133.276-.295.276-.18 0-.25-.108-.179-.276.064-.152.196-.276.295-.276.098 0 .179.124.179.276Zm2.09-.138a2.33 2.33 0 0 0-.33.322c-.086.105-.151.045-.153-.138a.323.323 0 0 1 .331-.322c.184 0 .252.062.153.138Zm-52.018.414c0 .1-.09.183-.2.183-.11 0-.2-.082-.2-.183 0-.102.09-.184.2-.184.11 0 .2.082.2.184Zm6.362-.073c-.066.06-.24.067-.384.014-.16-.058-.112-.102.121-.11.211-.009.33.035.263.096Zm48.779.27c0 .087-.135.111-.3.053-.166-.058-.302-.177-.302-.264 0-.087.136-.111.301-.053.166.058.301.177.301.264Zm4.21-.197c0 .1-.157.182-.35.18-.3-.002-.307-.028-.05-.18.378-.225.4-.225.4 0Zm-63.06.367c.068.101.028.184-.089.184-.117 0-.212-.083-.212-.184 0-.1.04-.184.088-.184.049 0 .144.083.213.184Zm52.434 0c0 .101-.096.184-.213.184-.116 0-.156-.083-.088-.184.068-.1.163-.184.212-.184.049 0 .089.083.089.184Zm5.003.45c.183.201.19.286.028.286-.128 0-.284-.124-.347-.276a.472.472 0 0 0-.395-.276c-.153 0-.28-.085-.28-.19 0-.238.626.048.994.456Zm-2.651-.339c-.067.061-.24.068-.385.015-.16-.059-.112-.102.121-.111.212-.008.33.035.264.096Zm-58.763.564c-.261.24-.128.613.217.61.277-.002.293-.037.075-.164-.152-.088-.215-.252-.139-.365.152-.224.058-.275-.153-.081Zm66.181.54c-.066.06-.24.067-.384.014-.16-.058-.112-.102.121-.11.212-.009.33.035.263.096Zm.656.256c0 .102-.09.184-.2.184-.11 0-.2-.082-.2-.184 0-.1.09-.183.2-.183.11 0 .2.082.2.183Zm2.206.092c0 .152-.09.276-.201.276-.11 0-.2-.124-.2-.276 0-.151.09-.275.2-.275.111 0 .201.124.201.275Zm5.614.379c0 .158-.09.236-.2.173-.111-.063-.201-.191-.201-.287 0-.095.09-.173.201-.173.11 0 .2.13.2.287Zm7.419 1.644c0 .152-.135.276-.301.276-.165 0-.3-.124-.3-.276 0-.152.135-.276.3-.276.166 0 .301.124.301.276Zm6.95 1.609c-.055.127-.101.023-.101-.23s.046-.356.101-.23a.65.65 0 0 1 0 .46Zm-94.474 2.16c-.068.102-.028.184.089.184.117 0 .212-.082.212-.183 0-.101-.04-.184-.088-.184-.049 0-.144.083-.212.184Zm-2.675.736c0 .253.046.357.101.23a.653.653 0 0 0 0-.46c-.055-.126-.1-.023-.1.23Zm-4.205.223c-.312.287-.305.566.013.46.138-.046.403.038.589.187.186.148.434.215.551.149.286-.162.272-.467-.021-.467-.13 0-.384-.123-.565-.273-.254-.211-.383-.224-.567-.056Zm-2.697.807c-.066.06-.071.225-.012.366.086.207-.07.235-.79.145-.57-.072-.947-.038-1.035.092-.076.114-.043.206.074.206.117 0 .212.197.212.437 0 .343.107.436.501.436.353 0 .502-.1.502-.338 0-.372.558-.716.952-.587.168.056.206-.024.117-.239-.092-.219-.06-.279.1-.188.129.073.234.054.234-.042 0-.097-.143-.225-.317-.287-.39-.137-.39-.137-.538-.001Zm1.256.394c0 .339.37.451.75.227.285-.167.29-.19.027-.116-.18.05-.428-.001-.552-.115-.166-.152-.225-.151-.225.004Zm-4.31.599c-.069.101-.029.184.088.184.116 0 .212.117.212.26 0 .378.463.463.727.134.171-.212.162-.34-.035-.522-.311-.285-.82-.314-.993-.056Zm-1.354.494c-.193.047-.351.234-.351.416 0 .183-.152.446-.338.584-.295.22-.323.213-.213-.054.074-.182.008-.347-.163-.408-.159-.056-.289-.02-.289.077 0 .098-.135.178-.3.178-.166 0-.301.08-.301.178 0 .098-.126.134-.28.08-.449-.158-.505.17-.096.556.331.312.376.318.376.046 0-.17.135-.308.3-.308.166 0 .301.13.301.288 0 .483.866.24 1.025-.288.087-.29.146-.34.158-.138.023.36.326.429.532.122.075-.11.304-.16.51-.11.307.073.34.03.185-.236-.104-.179-.135-.376-.068-.437.133-.123-.309-.685-.511-.651-.07.012-.284.06-.477.105Zm1.253.61c-.257.152-.25.178.05.18.193.002.351-.08.351-.18 0-.225-.023-.225-.401 0Zm-5.253 1.373c-1.032.61-1.14.767-.612.886.193.044.058.046-.3.005-.675-.078-.898.184-.329.384.205.072.286.247.22.48-.058.2-.023.365.077.365s.182-.166.182-.368c0-.4.147-.45.583-.198.329.191 1.02-.137 1.02-.484 0-.132.147-.183.352-.122.283.083.295.067.063-.084-.235-.153-.241-.239-.033-.469.207-.229.205-.345-.013-.617-.255-.318-.315-.308-1.21.222Zm-4.07 3.959c.068.102-.082.182-.34.18-.372-.002-.404-.037-.162-.18.373-.221.352-.221.501 0Zm117.098 4.78c.069.102-.022.185-.2.185-.179 0-.269-.083-.201-.184.069-.101.159-.184.201-.184.042 0 .132.083.2.184Zm-3.439 1.94c-.066.155-.162.244-.215.196-.052-.049-.036-.176.037-.284.198-.294.313-.237.178.087Zm-.602 1.103c-.065.156-.162.244-.214.196-.053-.048-.036-.176.036-.284.198-.293.314-.236.178.088Zm-4.681.635c0 .101-.095.184-.212.184-.117 0-.157-.082-.089-.184.069-.1.164-.184.213-.184.048 0 .088.083.088.184Zm.702 0c.068.101-.017.184-.189.184s-.312-.082-.312-.184c0-.1.084-.184.188-.184s.245.083.313.184ZM99.446 31.26c0 .101-.09.184-.2.184-.11 0-.201-.083-.201-.184 0-.101.09-.184.2-.184.11 0 .2.083.2.184Zm-77.531 1.673c.091.063.024.165-.15.226-.23.08-.319.002-.319-.28 0-.216.068-.318.15-.227.084.092.227.218.319.281Zm3.487.277c-.066.061-.24.068-.384.014-.16-.058-.112-.102.121-.11.212-.008.33.035.263.096Zm49.18.716c0 .159-.18.276-.425.276-.356 0-.385-.045-.176-.276.137-.151.329-.276.425-.276.097 0 .176.125.176.276Zm-21.956.092c.068.101-.022.184-.2.184-.179 0-.269-.083-.2-.184.067-.1.158-.184.2-.184.042 0 .132.083.2.184Zm-7.92.07c0 .038-.135.172-.3.298-.247.188-.302.175-.302-.07a.3.3 0 0 1 .301-.298c.166 0 .301.032.301.07Zm13.234.011c0 .045-.09.133-.2.195-.111.063-.201.026-.201-.081s.09-.195.2-.195c.11 0 .2.037.2.081Zm-8.906.471c.156 0 .284.165.284.368 0 .202-.052.367-.115.367-.23 0-.588-.469-.631-.827-.025-.202.005-.264.066-.138.062.127.24.23.396.23Zm-8.338.368c0 .237.101.367.25.322.138-.043.251-.188.251-.322 0-.135-.113-.28-.25-.322-.15-.046-.251.085-.251.322Zm12.769.034c-.064.147-.112.103-.121-.111-.009-.194.038-.302.105-.241.067.06.074.22.016.352Zm.565.517c.068.102-.017.184-.189.184s-.313-.083-.313-.184c0-.1.085-.183.19-.183.103 0 .244.082.312.183Z" fill="#6966FF"/></svg>