<svg width="32" height="100" viewBox="0 0 32 100" fill="none" xmlns="http://www.w3.org/2000/svg"><path fill-rule="evenodd" clip-rule="evenodd" d="M13.862.593c-.146.879-.134.922.298 1.12.218.1.396.27.396.376 0 .278.661.231.991-.07.415-.378.336-.815-.198-1.099-.262-.14-.476-.351-.476-.47 0-.184-.465-.44-.812-.45-.055-.002-.144.265-.199.593Zm1.568 2.26c-.261.348-.272.434-.075.584.127.097.285.178.35.18.066 0 .12.123.12.27 0 .305-.64.188-.824-.15-.06-.111-.149-.156-.196-.1-.132.16.197 1.366.422 1.545.155.123.137.205-.076.356-.153.108-.278.284-.278.39 0 .105.063.145.14.087.263-.195.536.45.439 1.036-.06.355-.03.571.078.571.099 0 .14.204.097.477-.058.364-.01.476.208.476.156 0 .316-.15.356-.333.067-.308.074-.307.09.012.01.19-.067.534-.172.763a3.6 3.6 0 0 0-.248.89c-.032.26-.12.519-.197.576-.08.06-.076.225.008.385.081.154.149.187.15.072.001-.116.216-.217.478-.226.314-.01.476.077.476.257 0 .15-.107.273-.238.273-.13 0-.238.138-.238.306 0 .205-.086.267-.257.188-.208-.096-.234-.037-.137.313.065.238.117.861.114 1.385-.003.524.076 1.016.177 1.094.12.091.093.14-.078.142-.496.006-.5.951-.004.962.24.006.24.03-.013.26-.153.14-.277.35-.277.47s-.077.217-.17.217c-.093 0-.147.194-.12.43.029.235.12.4.202.367.083-.034.212.136.286.377.087.28.075.464-.032.507-.093.037-.115.168-.05.29.169.315.164 1.08-.007 1.08-.079 0-.104.124-.055.276.059.184.012.24-.142.17-.142-.066-.23.011-.23.2 0 .169.063.307.14.307.186 0 .177.93-.011 1.07-.083.062-.033.266.114.46.247.329.243.343-.07.245-.19-.06-.331-.014-.331.108 0 .118.107.213.238.213.158 0 .238.191.238.572 0 .445.07.572.317.572.174 0 .317.086.317.19 0 .106-.076.191-.168.191-.093 0-.117.1-.053.223.076.148.03.184-.138.107-.354-.163-.653.319-.467.754.262.615.195 1.748-.145 2.44l-.328.667.489.335c.268.184.528.462.578.616.103.32-.377.82-.66.69-.121-.056-.187.147-.187.581 0 .402.09.709.227.771.283.131-.014.632-.375.632-.202 0-.197.073.032.493.253.465.252.513-.015.87-.194.257-.228.417-.108.507.097.072.22.56.271 1.085.052.524.053.846.003.714-.051-.13-.217-.238-.37-.238-.348 0-.332.615.027 1.093.159.21.247.62.228 1.054-.025.592-.088.711-.377.712-.208 0-.386.155-.448.39-.124.47.05 1.853.253 2.004.262.194.152.43-.29.626-.24.105-.348.198-.239.206.11.008.199.23.199.492 0 .296.09.476.237.476.131 0 .238.086.238.19 0 .106-.107.191-.238.191-.254 0-.276.18-.24 2.014.02 1.066-.009 1.172-.384 1.378-.45.246-.555.936-.17 1.114.13.06.201.18.157.267-.045.086-.001.217.097.29.13.097.129.168-.006.268-.1.075-.192.343-.203.596-.01.252-.132.62-.27.818-.234.337-.227.351.108.226.29-.11.356-.06.356.26 0 .217-.059.394-.132.394-.195 0-.496 1.32-.384 1.685.053.174.173.38.267.457.104.085.065.141-.098.143-.413.004-.482.317-.21.95.16.37.185.578.072.578-.096 0-.143.107-.104.238.088.295-.176.948-.336.83-.064-.048-.126.057-.137.232-.035.522-.137.967-.254 1.109-.06.073-.11.367-.11.654 0 .376.143.638.515.938.375.303.424.392.178.328-.266-.069-.32-.013-.259.27.043.196-.004.357-.105.357-.134 0-.137.102-.01.385.233.526.046.815-.435.67-.354-.107-.372-.089-.16.165.544.655.515 3.258-.045 3.93-.242.292-.311.534-.234.825.19.717.217 1.547.054 1.668-.095.07-.058.236.092.417.322.387.32.709-.006.709-.194 0-.239.138-.187.567.039.312-.007.602-.1.644-.105.047-.028.386.2.883.27.583.324.864.199 1.014-.095.115-.173.449-.173.742 0 .38-.08.536-.278.54-.262.005-.262.016.003.201.198.139.239.285.14.498-.166.356-.055 1.01.17 1.01.087 0 .113.139.06.308-.071.22-.03.276.14.196.313-.144.305.047-.018.476-.176.235-.264.73-.277 1.562-.014.889-.073 1.195-.218 1.13-.258-.118-.265.747-.008 1.056.109.13.122.229.03.229-.091 0-.176.655-.197 1.525-.025 1.018.02 1.525.138 1.525.097 0 .162.236.144.524-.04.632.152 1.382.353 1.382.083 0 .077-.156-.015-.362-.124-.279-.103-.39.091-.479.213-.098.237-.004.154.6a12.86 12.86 0 0 0-.107 1.051c-.004.183-.066.334-.137.334-.07 0-.129.214-.129.476s.063.477.14.477c.075 0 .138.128.138.286 0 .157.107.286.238.286.289 0 .31.406.04.736-.16.192-.144.278.079.429.152.103.277.398.277.655s.082.467.183.467c.107 0 .07.151-.09.363-.234.312-.243.425-.064.801.115.242.347.58.515.754.409.42.51 2.155.162 2.792-.24.443-.25.444-.73.11-.268-.188-.532-.48-.588-.65-.185-.564-1.244-1.827-1.628-1.943-.209-.063-.497-.354-.641-.647-.512-1.037-1.004-1.58-1.435-1.58-.25 0-.518-.164-.657-.402-.128-.22-.31-.344-.405-.274-.094.07-.171.027-.171-.096 0-.122-.107-.172-.238-.112-.162.075-.238-.01-.238-.266 0-.206-.066-.375-.147-.375-.081 0-.27-.147-.419-.326-.15-.18-.379-.346-.51-.369-.132-.023-.283-.113-.335-.2-.18-.299-1.419-1.187-1.826-1.31-.225-.068-.41-.197-.41-.287 0-.09-.214-.427-.475-.749-.262-.321-.476-.707-.476-.857 0-.324-.574-.734-.796-.57-.085.064-.155.019-.155-.1 0-.397-.482-.8-.991-.828-.614-.033-.774.455-.242.736.198.104.371.361.384.571.012.21.03.565.04.789.02.518 1.338 2.165 2.117 2.647.327.202.594.5.594.66 0 .37.55.792.851.653.158-.073.262.075.336.48.1.543.286.681.818.604.1-.014.17.122.158.303-.013.189.17.442.43.595.523.308 1.054.903 1.054 1.18 0 .105.127.19.283.19.156 0 .601.432.99.96.39.528.975 1.183 1.303 1.456.327.272.595.61.595.748 0 .664.584 1.604 1.19 1.914.348.18.687.311.752.293.066-.018.12.139.12.348 0 .21.07.382.158.382.087 0 .158.214.158.476 0 .297.09.477.238.477.131 0 .38.171.555.38.175.21.389.382.476.382.087 0 .158.086.158.19 0 .106.101.191.225.191s.251.096.284.214c.032.117.324.233.647.257.433.031.588-.033.588-.244 0-.239.05-.231.304.045.244.265.37.288.637.117.264-.17.3-.288.173-.572-.114-.255-.105-.38.03-.434.105-.042.209-.412.23-.823.022-.41.114-.776.205-.813.091-.036.166-.273.166-.526 0-.254.073-.461.162-.461.09 0 .23-.215.313-.477.083-.262.22-.476.303-.476.083 0 .197-.172.252-.382.055-.21.192-.38.302-.38.111 0 .284-.215.383-.477.1-.262.24-.477.314-.477.073 0 .413-.514.756-1.143.343-.628.675-1.143.739-1.144.18-.001 2.024-2.158 2.033-2.378.005-.108.444-.625.976-1.149s1.175-1.296 1.43-1.716c.254-.419.493-.74.53-.714.183.128.385-.01.973-.668.351-.393 1-1.092 1.441-1.554.442-.461.845-1.04.896-1.286.094-.447.361-.554 1.172-.468.517.055.88-.328.64-.677-.23-.331-.147-.434.39-.487.445-.045.603-.531.172-.531-.138 0-.222-.107-.186-.237a.562.562 0 0 0-.105-.446 11.6 11.6 0 0 1-.545-.8c-.39-.618-1.203-1.084-1.503-.86-.097.071-.365.113-.596.091-.231-.02-.51.09-.619.249-.109.158-.294.287-.41.287-.118 0-.29.171-.383.381-.094.21-.257.38-.363.379-.134-.002-.127-.053.023-.167.152-.116.163-.203.037-.296-.301-.224-1.572.882-1.629 1.419-.038.358-.149.481-.447.497-.845.044-.95.083-.95.355 0 .153-.09.24-.2.19-.226-.103-1.227.957-1.23 1.302 0 .126-.182.4-.403.61-.221.21-.615.617-.876.906-.26.288-.546.524-.634.524-.156 0-.448.34-1.23 1.431-.268.373-.323.575-.198.725.354.426.197.74-.303.608-.393-.104-.459-.073-.38.178.074.23.03.272-.184.173-.18-.083-.244-.057-.177.073.058.112-.035.405-.206.652-.171.247-.314.382-.317.3-.002-.083-.145-.06-.316.05s-.274.316-.229.459c.054.168-.072.294-.362.361-.245.057-.455.09-.466.072a6.229 6.229 0 0 1-.136-.483c-.073-.288-.057-.41.044-.335.148.11.156-.126.059-1.738-.018-.3-.127-.43-.36-.43-.229 0-.306-.088-.244-.28.049-.154-.015-.405-.142-.558-.13-.155-.231-.631-.231-1.077 0-.69.033-.767.238-.562.13.13.243.205.25.166.074-.395.074-.929 0-.929-.114 0-.104-1.947.011-2.199.046-.101.074-.831.061-1.624-.016-1.008-.104-1.578-.292-1.9-.175-.302-.268-.835-.268-1.54 0-.952.042-1.096.357-1.217.325-.126.33-.147.056-.233-.241-.075-.257-.127-.08-.26.181-.135.185-.236.022-.552-.11-.213-.143-.387-.074-.387.07 0 .14-.15.157-.334.017-.183.062-.626.1-.985.037-.358.003-.856-.076-1.107-.08-.25-.09-.415-.026-.367.066.05.095-.546.067-1.323-.043-1.145-.008-1.412.18-1.412.324 0 .453-.5.197-.755-.313-.311-.419-.96-.158-.96.17 0 .215-.433.21-2.017-.007-1.657.04-2.08.268-2.383.257-.341.258-.39.014-.715-.145-.192-.263-.492-.263-.667 0-.175-.06-.319-.133-.319-.073 0-.218-.225-.323-.5-.18-.477-.17-.496.218-.406.224.051.373.052.33 0-.042-.05.027-.217.154-.37.305-.366.291-.63-.033-.63-.236 0-.233-.038.025-.381s.26-.382.024-.382c-.329 0-.335-.18-.015-.46.19-.168.212-.33.095-.699-.096-.305-.096-.6 0-.806.083-.179.102-.42.043-.535-.06-.116-.01-.294.11-.395.153-.128.164-.21.037-.273-.199-.1-.117-.652.208-1.401.255-.587.277-1.53.036-1.53-.097 0-.134-.13-.084-.286.05-.158.022-.286-.063-.286-.084 0-.153-.086-.153-.19 0-.106.096-.191.213-.191.117 0 .335-.162.483-.36.244-.323.246-.386.025-.653-.135-.162-.246-.386-.246-.499 0-.112-.118-.204-.262-.204-.239 0-.238-.033.015-.37.21-.277.284-.736.302-1.858.02-1.154.074-1.477.243-1.433.16.04.188-.06.101-.382-.18-.67-.136-1.327.101-1.507.163-.124.166-.164.013-.166-.136-.002-.169-.16-.102-.48.06-.287.032-.476-.071-.476-.094 0-.132-.123-.084-.274.049-.152.195-.224.328-.163.174.08.223.011.176-.25-.036-.199-.15-.34-.254-.314-.104.027-.189-.08-.189-.238 0-.157-.07-.286-.158-.286-.235 0-.192-.368.08-.696.132-.158.204-.357.161-.441-.043-.085.025-.258.153-.385.202-.203.201-.268-.01-.522-.134-.16-.221-.516-.194-.792.04-.41.12-.49.444-.444.291.042.338.009.175-.124-.189-.153-.183-.297.036-.956.302-.906.208-1.423-.23-1.256-.471.18-.377-.646.14-1.23.396-.446.44-.628.464-1.923.015-.786.077-1.75.138-2.144.074-.472.053-.715-.062-.715-.096 0-.256-.184-.357-.41-.154-.347-.144-.392.07-.294.372.172.476-.195.244-.867-.157-.457-.16-.614-.015-.672.236-.095.252-.616.019-.616-.107 0-.133-.21-.07-.557.093-.506.068-.55-.265-.467-.252.063-.21.004.133-.188.426-.237.5-.381.5-.969 0-.38-.105-.816-.233-.97-.129-.154-.173-.28-.1-.28.18 0 .055-1.556-.148-1.859-.106-.157-.107-.238-.002-.238.292 0 .294-2.028.001-2.59-.245-.472-.401-1.778-.221-1.857.13-.059.127-.148-.013-.327-.152-.194-.137-.295.073-.48.225-.197.233-.28.054-.54-.116-.168-.158-.306-.093-.306s.027-.133-.085-.295c-.112-.162-.296-.252-.408-.2-.128.059-.172-.009-.116-.182.099-.31.53-.38.53-.086 0 .105.082.19.183.19.11 0 .078-.14-.08-.348a1.491 1.491 0 0 1-.262-.762c0-.228-.071-.414-.158-.414-.088 0-.159-.1-.159-.223s-.118-.38-.262-.572c-.247-.328-.242-.349.079-.349.188 0 .348-.064.355-.143.007-.078.045-.379.084-.667.04-.29-.002-.524-.092-.524s-.164-.129-.164-.286c0-.157-.107-.286-.238-.286-.13 0-.238-.086-.238-.19 0-.105.066-.191.146-.191.08 0 .196-.273.257-.606.082-.45.045-.663-.146-.831-.141-.124-.257-.323-.257-.443a.223.223 0 0 0-.227-.217c-.15 0-.222-.195-.213-.572.007-.315.072-.572.144-.572.164 0-.178-.952-.476-1.326-.152-.19-.165-.3-.043-.349.13-.051.132-.177.01-.452-.094-.21-.267-.336-.386-.281-.118.055-.24.012-.269-.095-.03-.107-.192-.011-.36.213Zm1.101 16.003a.245.245 0 0 1-.07.297c-.088.066-.16-.014-.16-.177 0-.335.094-.385.23-.12Zm1.257 1.453c.054.17.027.246-.063.179a.421.421 0 0 1-.157-.296c0-.274.114-.214.22.117Zm.732.775c0 .425-.036.464-.24.261-.182-.182-.197-.302-.06-.5.253-.367.3-.33.3.24Zm-1.348.072c-.054.105-.165.191-.247.191-.082 0-.15-.086-.15-.19 0-.105.112-.191.248-.191s.203.086.15.19Zm.916 2.533c.046.143-.038.245-.202.245s-.249-.102-.203-.245c.043-.135.134-.245.203-.245.068 0 .16.11.202.245Zm-2.37 29.762c.048.149-.016.318-.141.376-.15.069-.228-.023-.228-.27 0-.434.242-.504.37-.106Zm-1.396 5.412c-.048.059-.176 0-.284-.13-.155-.189-.137-.21.089-.107.156.072.244.178.195.237Zm1.344 1.371c.185.144.138.186-.208.188-.257.002-.404-.078-.347-.188.122-.237.25-.237.555 0ZM12.653 81.85c0 .041-.107.125-.237.185-.131.06-.238.027-.238-.075s.107-.185.238-.185c.13 0 .237.034.237.075Zm3.013.01c0 .046-.071.137-.159.201-.087.065-.158.027-.158-.084 0-.11.071-.202.158-.202.088 0 .159.038.159.085Z" fill="#6966FF"/></svg>