<svg width="20" height="50" viewBox="0 0 20 50" fill="none" xmlns="http://www.w3.org/2000/svg"><path fill-rule="evenodd" clip-rule="evenodd" d="M8.664.297c-.091.439-.084.46.186.56.136.05.248.134.248.188 0 .139.413.115.619-.035.26-.19.21-.408-.124-.55-.164-.07-.297-.175-.297-.235 0-.092-.29-.22-.508-.225-.034 0-.09.133-.124.297Zm.98 1.13c-.164.174-.17.217-.047.292a.66.66 0 0 0 .219.09c.04 0 .074.06.074.135 0 .152-.399.094-.515-.076-.037-.055-.092-.077-.122-.05-.083.08.123.684.264.773.096.061.085.103-.048.178-.095.054-.173.142-.173.195 0 .053.04.072.088.044.164-.098.334.224.273.517-.037.178-.018.286.05.286.061 0 .087.102.06.238-.036.183-.006.239.13.239a.242.242 0 0 0 .222-.167c.042-.154.046-.153.057.006a.826.826 0 0 1-.108.381 1.532 1.532 0 0 0-.155.445c-.02.13-.075.26-.123.289-.05.03-.048.112.005.192.05.077.093.093.094.036 0-.058.135-.109.299-.113.195-.005.297.038.297.128 0 .076-.067.137-.149.137a.151.151 0 0 0-.148.153c0 .102-.054.134-.161.094-.13-.048-.146-.018-.086.157.041.118.073.43.071.692-.002.262.048.508.111.547.075.046.058.07-.049.071-.31.003-.312.476-.002.481.15.003.15.015-.008.13-.096.07-.174.175-.174.235s-.047.109-.106.109c-.058 0-.091.096-.074.214s.074.2.126.184c.052-.017.132.068.178.189.054.14.047.232-.02.253-.058.019-.072.084-.03.145.105.157.101.54-.005.54-.05 0-.065.062-.035.138.037.092.008.12-.088.085-.089-.033-.144.006-.144.1 0 .084.04.153.087.153.117 0 .11.466-.007.536-.051.03-.02.133.071.23.155.164.153.171-.043.122-.119-.03-.207-.007-.207.054 0 .059.067.107.149.107.099 0 .148.095.148.286 0 .222.044.286.198.286.11 0 .199.043.199.095 0 .052-.048.095-.105.095-.058 0-.073.05-.034.112.048.074.019.092-.086.053-.221-.082-.408.16-.292.377.164.308.122.874-.09 1.22l-.205.334.305.167c.168.092.33.23.362.308.064.16-.235.41-.412.345-.076-.028-.117.073-.117.29 0 .201.056.355.141.386.177.066-.008.316-.234.316-.126 0-.123.037.02.246.158.233.158.257-.01.435-.12.129-.142.21-.067.254.06.036.137.28.17.542.032.262.033.423.001.358-.032-.066-.136-.12-.23-.12-.218 0-.209.308.016.547.1.105.155.31.143.527-.016.296-.056.355-.236.356a.29.29 0 0 0-.28.195c-.078.235.032.927.158 1.002.164.097.095.215-.182.313-.15.052-.217.099-.148.103.068.004.123.115.123.246 0 .148.057.238.15.238.08 0 .148.043.148.095 0 .053-.067.096-.149.096-.16 0-.172.09-.15 1.006.013.534-.006.587-.24.69-.281.122-.347.468-.106.556.081.03.125.09.098.134-.028.043-.001.108.06.145.082.048.081.084-.003.134-.063.038-.12.172-.127.298a.795.795 0 0 1-.169.41c-.146.167-.142.174.067.112.182-.055.223-.03.223.13 0 .108-.037.197-.082.197-.123 0-.31.66-.24.843.033.087.108.19.166.228.065.043.041.07-.06.071-.26.003-.302.16-.132.476.1.185.116.288.045.288-.06 0-.09.054-.065.12.055.147-.11.474-.21.414-.04-.024-.079.029-.086.117-.021.26-.085.483-.159.554-.038.036-.069.183-.069.327 0 .188.09.319.322.469.235.151.265.196.112.164-.167-.035-.2-.007-.162.135.027.098-.003.178-.065.178-.084 0-.086.052-.007.193.146.263.029.407-.272.335-.221-.054-.232-.044-.1.083.34.327.322 1.628-.028 1.965-.151.145-.194.267-.146.412.118.358.135.774.034.834-.06.035-.037.118.057.208.201.194.2.355-.004.355-.12 0-.149.069-.116.284.024.155-.005.3-.063.321-.066.024-.017.194.125.442.168.291.203.432.124.507-.06.057-.108.224-.108.371 0 .19-.05.268-.173.27-.164.003-.164.008.001.1.124.07.15.143.088.25-.104.177-.035.505.106.505.054 0 .07.069.037.153-.044.11-.019.138.089.099.195-.072.19.023-.012.238-.11.117-.165.364-.173.78-.01.445-.046.598-.136.565-.162-.058-.166.374-.005.529.067.065.076.114.019.114-.058 0-.11.327-.124.762-.016.51.013.763.087.763.06 0 .1.118.09.262-.025.316.095.691.22.691.052 0 .048-.078-.01-.181-.077-.14-.064-.195.058-.24.133-.049.148-.002.096.3a5.159 5.159 0 0 0-.067.526c-.003.092-.041.167-.086.167-.044 0-.08.107-.08.238s.039.238.087.238c.047 0 .086.065.086.143 0 .079.067.143.149.143.18 0 .194.204.025.368-.1.097-.09.14.05.215.095.052.173.2.173.328s.051.233.114.233c.067 0 .044.075-.056.181-.147.156-.152.213-.04.401.072.12.216.29.322.377.255.21.318 1.078.101 1.396-.15.221-.157.222-.456.055-.168-.094-.333-.24-.368-.325-.116-.282-.777-.913-1.018-.971-.13-.032-.31-.177-.4-.324-.32-.519-.628-.79-.897-.79a.532.532 0 0 1-.41-.2c-.08-.111-.195-.173-.254-.138-.058.035-.107.013-.107-.048 0-.06-.067-.086-.148-.056-.101.037-.149-.005-.149-.133 0-.103-.041-.187-.092-.187-.05 0-.168-.074-.262-.164a.733.733 0 0 0-.319-.184c-.082-.011-.176-.056-.209-.1-.113-.15-.887-.594-1.141-.655-.141-.034-.256-.099-.256-.143 0-.045-.134-.214-.297-.375-.164-.16-.298-.354-.298-.428 0-.162-.358-.368-.497-.285-.054.031-.097.009-.097-.05 0-.2-.302-.4-.62-.414-.383-.017-.484.227-.15.367.123.053.231.181.239.286.008.105.019.282.025.394.013.26.837 1.083 1.323 1.324.205.101.372.25.372.33 0 .185.343.396.532.327.098-.037.163.037.21.24.062.271.178.34.51.302.063-.008.107.06.1.15-.008.096.106.222.269.299.326.153.658.45.658.59 0 .052.08.095.177.095.097 0 .376.216.619.48.243.263.61.59.814.727.205.137.372.305.372.374 0 .332.365.802.743.958.218.09.43.155.47.146.042-.01.075.07.075.174 0 .105.045.19.1.19.054 0 .098.108.098.239 0 .148.057.238.149.238.082 0 .238.086.347.19.109.106.243.191.297.191.055 0 .1.043.1.096 0 .052.062.095.14.095.077 0 .157.048.177.107.02.059.202.117.405.128.27.016.367-.016.367-.121 0-.12.032-.116.19.022.152.132.232.144.398.058.165-.085.187-.143.108-.285-.07-.128-.065-.19.02-.217.065-.021.13-.207.143-.412.014-.205.071-.388.128-.406.057-.019.103-.137.103-.264s.046-.23.102-.23c.056 0 .144-.107.196-.238.051-.132.136-.239.189-.239.052 0 .123-.086.157-.19.035-.105.12-.19.19-.19.069 0 .176-.108.238-.24.063-.13.15-.237.196-.237.046 0 .26-.258.473-.572.215-.314.422-.572.462-.572.113 0 1.265-1.08 1.27-1.189.004-.054.278-.312.61-.575.333-.262.735-.648.894-.857.16-.21.309-.37.332-.358.114.065.24-.005.608-.333.22-.197.625-.547.9-.777.277-.231.529-.52.56-.644.06-.223.226-.276.733-.233.323.027.55-.165.4-.339-.143-.166-.092-.217.243-.244.28-.022.378-.265.108-.265-.086 0-.139-.053-.116-.118.023-.066-.007-.166-.066-.224a6.004 6.004 0 0 1-.34-.4c-.244-.309-.752-.541-.94-.43-.06.036-.228.057-.372.046-.145-.01-.319.045-.387.124-.068.08-.184.144-.257.144-.073 0-.18.086-.239.19-.058.105-.16.19-.226.19-.084-.001-.08-.026.014-.084.095-.058.102-.1.023-.148-.188-.112-.982.442-1.018.71-.024.179-.093.24-.28.248-.528.022-.594.042-.594.178 0 .077-.055.12-.124.095-.141-.051-.767.479-.769.651 0 .063-.114.2-.252.305-.138.105-.384.309-.547.453-.163.144-.342.262-.397.262-.097 0-.28.17-.769.716-.167.186-.201.287-.123.362.22.213.123.37-.19.304-.245-.052-.286-.036-.236.089.046.115.018.136-.116.086-.112-.041-.152-.028-.11.037.035.056-.023.203-.13.326-.106.123-.195.19-.197.15-.002-.041-.091-.03-.198.025-.107.055-.171.158-.143.23.034.084-.045.147-.227.18-.153.028-.284.045-.29.036a2.618 2.618 0 0 1-.085-.242c-.046-.143-.036-.204.027-.167.092.055.097-.063.037-.87-.012-.149-.08-.214-.225-.214-.143 0-.191-.044-.153-.14.03-.077-.01-.203-.089-.279-.08-.077-.144-.316-.144-.539 0-.344.02-.383.149-.28.081.065.152.102.156.082.046-.197.046-.464 0-.464-.071 0-.065-.973.007-1.1.03-.05.046-.415.038-.811-.01-.505-.065-.79-.182-.95-.11-.151-.168-.418-.168-.77 0-.476.026-.549.223-.61.203-.062.206-.072.035-.115-.15-.038-.16-.064-.05-.13.114-.068.116-.118.014-.276-.069-.107-.09-.194-.046-.194.043 0 .087-.075.098-.167.01-.092.039-.313.062-.492.024-.18.002-.428-.047-.554-.05-.125-.057-.208-.016-.183.04.024.06-.274.041-.662-.026-.572-.005-.706.114-.706.201 0 .282-.25.122-.378-.195-.155-.262-.48-.099-.48.107 0 .135-.216.131-1.008-.004-.829.026-1.04.168-1.191.16-.171.161-.196.009-.358-.09-.096-.164-.246-.164-.334 0-.087-.038-.159-.084-.159-.045 0-.136-.112-.201-.25-.113-.238-.107-.248.136-.203.14.026.233.026.206 0-.026-.025.017-.108.096-.184.19-.184.182-.316-.02-.316-.148 0-.146-.02.015-.19.162-.172.163-.191.016-.191-.206 0-.21-.09-.01-.23.119-.084.132-.165.06-.35-.06-.153-.061-.3-.001-.403.052-.09.064-.21.027-.268-.037-.058-.006-.146.069-.197.095-.064.102-.105.023-.137-.124-.05-.073-.326.13-.7.16-.293.173-.765.022-.765-.06 0-.084-.064-.052-.143.031-.079.014-.143-.04-.143a.096.096 0 0 1-.095-.096c0-.052.06-.095.133-.095.073 0 .21-.08.302-.18.152-.16.154-.193.015-.326-.084-.081-.153-.193-.153-.25 0-.056-.074-.102-.164-.102-.15 0-.148-.016.01-.184.13-.139.177-.368.188-.93.012-.577.046-.738.152-.716.1.02.117-.03.063-.19-.112-.336-.085-.664.063-.755.102-.061.104-.081.008-.082-.084-.001-.105-.08-.063-.24.037-.144.02-.239-.045-.239-.059 0-.082-.061-.052-.136.03-.076.122-.113.205-.082.109.04.14.006.11-.125-.022-.1-.094-.17-.159-.157-.065.013-.118-.04-.118-.119 0-.079-.044-.143-.099-.143-.147 0-.12-.184.05-.348.083-.08.128-.178.1-.22-.026-.043.017-.13.096-.193.127-.101.126-.134-.006-.261a.528.528 0 0 1-.121-.396c.024-.204.075-.245.278-.222.182.02.21.004.109-.062-.118-.076-.115-.148.023-.478.188-.453.13-.712-.144-.628-.295.09-.236-.323.087-.615.248-.223.275-.314.29-.961.01-.393.048-.876.086-1.073.046-.236.033-.357-.039-.357-.06 0-.16-.092-.222-.205-.097-.174-.09-.196.043-.147.233.086.298-.097.153-.434-.098-.228-.1-.306-.01-.335.148-.048.158-.309.012-.309-.066 0-.083-.105-.043-.278.058-.253.042-.275-.166-.233-.157.031-.131.002.083-.094.266-.12.312-.191.312-.485 0-.19-.065-.408-.145-.485-.08-.077-.108-.14-.062-.14.112 0 .034-.778-.093-.93-.066-.078-.067-.119-.002-.119.183 0 .184-1.014.002-1.295-.154-.236-.251-.888-.139-.928.082-.03.08-.074-.008-.163-.095-.097-.086-.148.046-.24.14-.099.145-.14.034-.27-.073-.085-.1-.154-.059-.154.04 0 .017-.066-.053-.147-.07-.081-.185-.126-.255-.1-.08.03-.107-.004-.072-.091.062-.155.33-.19.33-.043 0 .053.052.095.115.095.069 0 .049-.07-.05-.174a.655.655 0 0 1-.163-.381c0-.114-.045-.207-.1-.207-.054 0-.099-.05-.099-.112 0-.061-.073-.19-.164-.286-.154-.163-.15-.174.05-.174.117 0 .217-.032.222-.071.004-.04.028-.19.053-.334.024-.145-.002-.262-.058-.262s-.103-.064-.103-.143a.146.146 0 0 0-.148-.143c-.082 0-.149-.043-.149-.095 0-.053.041-.096.091-.096.05 0 .123-.136.16-.302.052-.225.029-.332-.09-.416-.089-.062-.16-.162-.16-.221 0-.06-.065-.11-.143-.11-.094 0-.139-.097-.133-.285.004-.157.045-.286.09-.286.102 0-.112-.476-.298-.663-.095-.095-.103-.15-.026-.174.08-.026.082-.089.005-.226-.058-.105-.166-.168-.24-.141-.074.027-.15.006-.169-.048-.018-.053-.12-.005-.225.107Zm.688 8c.031.05.012.117-.044.15-.055.032-.1-.008-.1-.09 0-.167.059-.191.144-.06Zm.785.727c.034.085.017.123-.039.09-.054-.032-.098-.099-.098-.148 0-.137.071-.107.137.058Zm.458.388c0 .213-.023.232-.15.13-.114-.09-.123-.15-.037-.25.158-.183.187-.164.187.12Zm-.842.036c-.034.053-.104.096-.155.096a.095.095 0 0 1-.093-.096c0-.052.07-.095.154-.095.085 0 .127.043.094.095Zm.572 1.267c.029.07-.024.122-.127.122-.102 0-.155-.051-.126-.123.027-.067.084-.122.127-.122.042 0 .1.055.126.123Zm-1.481 14.88a.144.144 0 0 1-.089.188c-.094.035-.142-.01-.142-.135 0-.217.152-.251.23-.052Zm-.873 2.706c-.03.03-.11 0-.177-.065-.097-.094-.086-.105.055-.053.098.036.153.09.122.119Zm.84.686c.116.072.087.093-.13.094-.16 0-.252-.039-.217-.094.076-.118.157-.118.347 0ZM7.908 40.925c0 .02-.067.062-.148.092-.082.03-.149.013-.149-.037 0-.051.067-.093.149-.093.082 0 .148.017.148.038Zm1.883.004c0 .023-.044.069-.099.101-.054.033-.099.014-.099-.042a.1.1 0 0 1 .1-.1c.054 0 .098.018.098.041Z" fill="#6966FF"/></svg>