<svg width="1321" height="520" viewBox="0 0 1321 520" fill="none" xmlns="http://www.w3.org/2000/svg"><mask id="b" style="mask-type:alpha" maskUnits="userSpaceOnUse" x="200" y="0" width="921" height="320"><path opacity=".7" fill-rule="evenodd" clip-rule="evenodd" d="M223.868 35.994c26.022 12.323 78.066 46.847 78.066 86.357 0 2.766-.043 6.018-.092 9.683-.831 61.781-3.233 240.579 175.742 172.91 25.334-9.578 51.364-18.894 76.953-28.053 35.251-12.616 69.665-24.933 100.271-37.224 108.656 62.446 209.857 101.644 322.618 18.115C1129.56 145.083 1171.83-47.755 1045.83 19.623c-22.1 14.158-85.755 43.292-163.52 46.561-5.443.23-11.849.476-19.065.755-47.12 1.817-128.803 4.968-202.615 13.07C448.088 1.274 106.673-30.36 223.868 35.995Z" fill="url(#a)"/></mask><g mask="url(#b)" stroke="#393953" stroke-opacity=".3"><path d="M183.172-228.666h24v792h-24zm24 0h24v792h-24zm24 0h24v792h-24zm24 0h24v792h-24zm24 0h24v792h-24zm24 0h24v792h-24zm24 0h24v792h-24zm24 0h24v792h-24zm24 0h24v792h-24zm24 0h24v792h-24zm24 0h24v792h-24zm24 0h24v792h-24zm24 0h24v792h-24zm24 0h24v792h-24zm24 0h24v792h-24zm24 0h24v792h-24zm24 0h24v792h-24zm24 0h24v792h-24zm24 0h24v792h-24zm24 0h24v792h-24zm24 0h24v792h-24zm24 0h24v792h-24zm24 0h24v792h-24zm24 0h24v792h-24zm24 0h24v792h-24zm24 0h24v792h-24zm24 0h24v792h-24zm24 0h24v792h-24zm24 0h24v792h-24zm24 0h24v792h-24zm24 0h24v792h-24zm24 0h24v792h-24zm24 0h24v792h-24zm24 0h24v792h-24zm24 0h24v792h-24z"/><path d="M1023.17-228.666h24v792h-24zm24 0h24v792h-24zm24 0h24v792h-24zm24 0h24v792h-24zm24 0h24v792h-24z"/><path d="M-56.828 11.334v-24h1440v24zm0 24v-24h1440v24zm0 24v-24h1440v24zm0 24v-24h1440v24zm0 24v-24h1440v24zm0 24v-24h1440v24zm0 24v-24h1440v24zm0 24v-24h1440v24zm0 24v-24h1440v24zm0 24v-24h1440v24zm0 24v-24h1440v24zm0 24v-24h1440v24zm0 24v-24h1440v24zm0 24v-24h1440v24z"/></g><defs><linearGradient id="a" x1="1110.34" y1="-20.222" x2="906.286" y2="398.477" gradientUnits="userSpaceOnUse"><stop stop-color="#fff"/><stop offset="1" stop-color="#fff"/></linearGradient></defs></svg>