<svg width="1440" height="792" viewBox="0 0 1440 792" fill="none" xmlns="http://www.w3.org/2000/svg"><mask id="b" style="mask-type:alpha" maskUnits="userSpaceOnUse" x="0" y="0" width="1440" height="792"><path fill="url(#a)" d="M0 0h1440v792H0z"/></mask><g mask="url(#b)" stroke="#393953" stroke-opacity=".3"><path d="M0 0h24v792H0zm24 0h24v792H24zm24 0h24v792H48zm24 0h24v792H72zm24 0h24v792H96zm24 0h24v792h-24zm24 0h24v792h-24zm24 0h24v792h-24zm24 0h24v792h-24zm24 0h24v792h-24zm24 0h24v792h-24zm24 0h24v792h-24zm24 0h24v792h-24zm24 0h24v792h-24zm24 0h24v792h-24zm24 0h24v792h-24zm24 0h24v792h-24zm24 0h24v792h-24zm24 0h24v792h-24zm24 0h24v792h-24zm24 0h24v792h-24zm24 0h24v792h-24zm24 0h24v792h-24zm24 0h24v792h-24zm24 0h24v792h-24zm24 0h24v792h-24zm24 0h24v792h-24zm24 0h24v792h-24zm24 0h24v792h-24zm24 0h24v792h-24zm24 0h24v792h-24zm24 0h24v792h-24zm24 0h24v792h-24zm24 0h24v792h-24zm24 0h24v792h-24zm24 0h24v792h-24zm24 0h24v792h-24zm24 0h24v792h-24zm24 0h24v792h-24zm24 0h24v792h-24zm24 0h24v792h-24zm24 0h24v792h-24zm24 0h24v792h-24zm24 0h24v792h-24zm24 0h24v792h-24zm24 0h24v792h-24zm24 0h24v792h-24zm24 0h24v792h-24zm24 0h24v792h-24zm24 0h24v792h-24zm24 0h24v792h-24zm24 0h24v792h-24zm24 0h24v792h-24zm24 0h24v792h-24zm24 0h24v792h-24zm24 0h24v792h-24zm24 0h24v792h-24zm24 0h24v792h-24zm24 0h24v792h-24zm24 0h24v792h-24z"/><path d="M0 24V0h1440v24zm0 24V24h1440v24zm0 24V48h1440v24zm0 24V72h1440v24zm0 24V96h1440v24zm0 24v-24h1440v24zm0 24v-24h1440v24zm0 24v-24h1440v24zm0 24v-24h1440v24zm0 24v-24h1440v24zm0 24v-24h1440v24zm0 24v-24h1440v24zm0 24v-24h1440v24zm0 24v-24h1440v24zm0 24v-24h1440v24zm0 24v-24h1440v24zm0 24v-24h1440v24zm0 24v-24h1440v24zm0 24v-24h1440v24zm0 24v-24h1440v24zm0 24v-24h1440v24zm0 24v-24h1440v24zm0 24v-24h1440v24zm0 24v-24h1440v24zm0 24v-24h1440v24zm0 24v-24h1440v24zm0 24v-24h1440v24zm0 24v-24h1440v24zm0 24v-24h1440v24zm0 24v-24h1440v24zm0 24v-24h1440v24zm0 24v-24h1440v24zm0 24v-24h1440v24z"/></g><defs><linearGradient id="a" x1="720" y1="792" x2="720" y2="-82.5" gradientUnits="userSpaceOnUse"><stop stop-color="#fff"/><stop offset="1" stop-color="#fff" stop-opacity="0"/></linearGradient></defs></svg>