<svg width="1440" height="792" viewBox="0 0 1440 792" fill="none" xmlns="http://www.w3.org/2000/svg"><mask id="b" style="mask-type:alpha" maskUnits="userSpaceOnUse" x="0" y="0" width="1441" height="792"><path fill="url(#a)" d="M.191 0h1440v792H.191z"/></mask><g mask="url(#b)" stroke="#393953" stroke-opacity=".3"><path d="M.191 0h24v792h-24zm24 0h24v792h-24zm24 0h24v792h-24zm24 0h24v792h-24zm24 0h24v792h-24zm24 0h24v792h-24zm24 0h24v792h-24zm24 0h24v792h-24zm24 0h24v792h-24zm24 0h24v792h-24zm24 0h24v792h-24z"/><path d="M264.191 0h24v792h-24zm24 0h24v792h-24zm24 0h24v792h-24zm24 0h24v792h-24zm24 0h24v792h-24zm24 0h24v792h-24zm24 0h24v792h-24zm24 0h24v792h-24zm24 0h24v792h-24zm24 0h24v792h-24zm24 0h24v792h-24zm24 0h24v792h-24zm24 0h24v792h-24zm24 0h24v792h-24zm24 0h24v792h-24zm24 0h24v792h-24zm24 0h24v792h-24zm24 0h24v792h-24zm24 0h24v792h-24zm24 0h24v792h-24zm24 0h24v792h-24zm24 0h24v792h-24zm24 0h24v792h-24zm24 0h24v792h-24zm24 0h24v792h-24zm24 0h24v792h-24zm24 0h24v792h-24zm24 0h24v792h-24zm24 0h24v792h-24zm24 0h24v792h-24zm24 0h24v792h-24z"/><path d="M1008.19 0h24v792h-24zm24 0h24v792h-24zm24 0h24v792h-24zm24 0h24v792h-24zm24 0h24v792h-24zm24 0h24v792h-24zm24 0h24v792h-24zm24 0h24v792h-24zm24 0h24v792h-24zm24 0h24v792h-24zm24 0h24v792h-24zm24 0h24v792h-24zm24 0h24v792h-24zm24 0h24v792h-24zm24 0h24v792h-24zm24 0h24v792h-24zm24 0h24v792h-24zm24 0h24v792h-24z"/><path d="M.191 24V0h1440v24zm0 24V24h1440v24zm0 24V48h1440v24zm0 24V72h1440v24zm0 24V96h1440v24zm0 24v-24h1440v24zm0 24v-24h1440v24zm0 24v-24h1440v24zm0 24v-24h1440v24zm0 24v-24h1440v24zm0 24v-24h1440v24zm0 24v-24h1440v24zm0 24v-24h1440v24zm0 24v-24h1440v24zm0 24v-24h1440v24zm0 24v-24h1440v24zm0 24v-24h1440v24zm0 24v-24h1440v24zm0 24v-24h1440v24zm0 24v-24h1440v24zm0 24v-24h1440v24zm0 24v-24h1440v24zm0 24v-24h1440v24zm0 24v-24h1440v24zm0 24v-24h1440v24zm0 24v-24h1440v24zm0 24v-24h1440v24zm0 24v-24h1440v24zm0 24v-24h1440v24zm0 24v-24h1440v24zm0 24v-24h1440v24zm0 24v-24h1440v24zm0 24v-24h1440v24z"/></g><defs><linearGradient id="a" x1="720.191" y1="0" x2="720.191" y2="792" gradientUnits="userSpaceOnUse"><stop stop-color="#fff"/><stop offset="1" stop-color="#fff" stop-opacity="0"/></linearGradient></defs></svg>