<svg width="277" height="24" viewBox="0 0 277 24" fill="none" xmlns="http://www.w3.org/2000/svg"><path fill-rule="evenodd" clip-rule="evenodd" d="M181.374.142c-.076.068-2.284.129-4.904.136-3.374.01-4.767.122-4.771.386-.004.274-.076.276-.272.01-.169-.229-1.203-.327-2.808-.268-2.97.11-5.08.156-5.719.123-.573-.03-12.799.325-12.799.371 0 .019-.899.075-1.997.126-2.726.125-2.647.101-2.394.729.172.427.074.399-.415-.119-.491-.52-.936-.645-1.911-.538-.699.076-1.883.154-2.632.172-.874.021-1.362.186-1.362.458 0 .506-.61.572-.794.087-.07-.186-.615-.33-1.21-.318-3.634.07-4.377.144-4.617.462-.186.248-.268.234-.272-.045-.004-.28-.747-.399-2.487-.399-1.364 0-2.586.092-2.713.204-.128.113-1.667.254-3.419.314-7.037.242-8.449.36-8.983.75-.307.224-.558.277-.558.117 0-.16-.308-.29-.685-.29-.409 0-.613.166-.506.41.243.559-.089.518-.786-.096-.518-.455-.737-.459-2.155-.034-.872.262-1.789.359-2.049.218-.259-.141-.648-.197-.866-.125-.218.072-1.295.194-2.393.27-4.223.297-6.375.516-6.899.702-.3.106-1.386.166-2.414.133-1.028-.034-1.964.074-2.08.237-.115.165-.602.233-1.084.152-.48-.081-1.815.025-2.965.234-1.15.21-2.844.437-3.763.503-.92.067-2.163.195-2.762.285-.6.09-2.07.243-3.268.34-3.752.302-9.635 1.08-10.11 1.335-.168.091-1.148.21-2.178.266-2.329.125-3.253.306-4.614.904-.612.268-1.07.33-1.07.146 0-.383-3.026-.012-3.201.392-.063.145-.349.185-.636.088-.333-.113-.52.03-.52.398 0 .546-.025.545-.49-.014-.32-.384-.66-.496-.982-.321-.271.147-.99.315-1.598.373-.609.059-1.158.24-1.221.404-.068.176-.45.186-.93.026-.74-.248-3.721.22-5.31.833-.299.116-.765.178-1.034.14-.305-.046-.386.076-.213.322.203.29.09.327-.417.14-1.008-.37-2.99-.219-4.172.32-.564.256-1.542.466-2.172.466-.631 0-2.478.285-4.103.633-1.626.348-3.405.71-3.955.805-.593.102-.998.38-.998.683 0 .426-.095.443-.56.104-.425-.31-.662-.32-.98-.04-.232.204-.806.37-1.277.37-1.633 0-4.082.705-4.082 1.175 0 .266-.176.364-.418.233-.23-.125-.639.038-.908.362s-.49.417-.49.208-.408-.38-.907-.38c-.5 0-.908.159-.908.353 0 .195-.258.267-.573.16-1.03-.347-2.33.141-2.343.879-.011.67-.022.672-.545.064-.527-.614-.533-.614-.538 0-.005.458-.085.51-.31.197-.25-.345-.565-.324-1.72.114-.778.296-2.15.725-3.048.955-3.736.956-5.082 1.593-4.821 2.283.077.201-.058.474-.3.605-.278.152-.343.104-.178-.13.823-1.172-1.902-.903-3.112.308-.355.354-.66.46-.737.253-.073-.193-.366.031-.65.499-.442.726-.443.889-.008 1.125.734.4 1.813-.214 1.844-1.048.022-.62.058-.635.286-.125.31.691.76.753 1.185.163.21-.29.31-.304.313-.045.004.275.28.254 1.004-.078.55-.253 1.285-.46 1.634-.46.35-.002.635-.214.635-.472 0-.285.213-.397.545-.285.3.101.83.077 1.18-.052.35-.13 1.041-.283 1.538-.34 1.32-.152 2.598-.831 2.403-1.278-.098-.225.088-.353.441-.305.336.045.722-.149.857-.431.215-.447.25-.44.273.053.02.454.26.537 1.205.419 3.143-.394 6.038-1.428 5.794-2.068-.119-.31-.019-.361.331-.169.682.375 1.47.458 1.933.204.211-.116.71-.228 1.11-.249.616-.032 3.247-.512 7.08-1.29.5-.102 1.317-.266 1.816-.364.499-.099 1.028-.337 1.174-.531.182-.24.269-.218.273.066.002.23.183.322.4.204.217-.118.315-.481.219-.807-.195-.654.362-.68 1.128-.054.601.49 1.12.498 3.18.042.888-.197 1.614-.544 1.614-.77 0-.42.862-.457 1.317-.056.138.12.469.059.737-.137.36-.263.487-.259.487.014 0 .253.2.276.636.07.739-.347 2.523-.661 4.744-.835.862-.068 1.779-.277 2.037-.466.259-.188 1.187-.4 2.063-.468.877-.07 1.717-.14 1.867-.158.15-.017.284-.283.297-.59.021-.458.07-.473.273-.08.247.478 1.896.613 2.97.242.765-.264 3.756-.617 6.506-.766 1.281-.07 2.524-.268 2.76-.44.237-.173.823-.302 1.301-.287 1.4.046 7.745-.699 7.947-.932.102-.118.593-.211 1.092-.21.5.003 1.194-.199 1.544-.448.486-.347.635-.358.635-.047 0 .275.265.334.817.183.45-.123 1.336-.208 1.97-.189.634.02 1.256-.113 1.383-.293.152-.217.455-.224.888-.02.36.17.77.21.907.088.139-.122.936-.262 1.773-.312 2.404-.144 5.135-.356 5.333-.414.1-.03.712-.028 1.362.003.676.033 1.18-.098 1.18-.306 0-.2.163-.274.363-.165.2.109.363.045.363-.141s.173-.338.384-.338c.212 0 .284.143.16.32-.123.175.113.319.524.319.41 0 .747-.109.747-.242 0-.132 1.103-.254 2.451-.27 1.348-.016 3.105-.137 3.903-.268.799-.13 1.829-.225 2.29-.21.518.017.743-.106.591-.322-.176-.251-.035-.25.501.002.852.401 4.062.48 4.062.1 0-.389 1.543-.4 2.071-.014.311.227.47.232.47.015 0-.181.327-.253.726-.162.4.092.727.043.727-.11 0-.152 1.141-.257 2.536-.234 1.801.03 2.466-.063 2.291-.32-.136-.199.03-.164.368.077.338.241.614.313.614.16.001-.153 1.092-.284 2.425-.29 1.615-.007 2.475-.145 2.577-.412.116-.308.271-.315.661-.03.28.204.512.246.515.093.003-.153.155-.071.337.182.266.37.513.389 1.241.097.694-.278.952-.274 1.088.018.116.25.283.271.478.063.165-.175 1.035-.329 1.934-.34.898-.012 2.042-.102 2.541-.2.5-.098 1.109-.037 1.354.135.292.204.803.203 1.473-.002.564-.173 1.733-.259 2.597-.19.865.069 2.085 0 2.712-.152.626-.153 1.485-.165 1.907-.027.657.214.743.15.596-.445-.133-.538-.089-.592.195-.236.454.567 2.598.76 2.606.234.003-.216.154-.172.358.105.193.264.354.354.357.2.003-.153.236-.11.518.096.587.428 1.146-.064.735-.649-.136-.193.185-.103.714.202.872.503 1.672.531 8.668.304 4.238-.138 8.074-.244 8.524-.235.449.008.817-.114.817-.271 0-.157.254-.286.566-.286.311 0 .473.132.36.293-.295.42 4.103.202 4.591-.228.262-.23.623-.25 1.032-.058.346.163 1.179.3 1.851.307.672.006 1.916.045 2.764.088 1.167.059 1.545-.04 1.549-.402.004-.354.08-.376.29-.084.303.42 1.931.454 12.05.261 6.709-.128 6.143-.125 10.862-.065 2.743.035 3.824-.062 3.933-.351.083-.22.301-.4.484-.4s.292.18.242.4c-.11.486 2.32.557 2.718.08.166-.2.269-.174.273.07.003.239.495.373 1.276.347.699-.023 1.271-.154 1.271-.291 0-.137.367-.17.817-.074 1.217.262 8.149.205 8.658-.071.279-.152.346-.106.184.125-.367.521 2.432.316 3.185-.234.499-.364.59-.357.59.04 0 .333.368.456 1.259.422.692-.026 1.354-.131 1.47-.234.117-.102.815-.066 1.551.08.736.146 2.035.182 2.886.079 1.358-.164 1.553-.29 1.591-1.022.041-.808.05-.804.273.112.225.92.296.949 2.59 1.023 1.297.041 2.685.136 3.085.21.399.074.895.017 1.101-.126.399-.277 1.204-.244 1.804.073.199.106.853.129 1.452.05.599-.077 1.253-.12 1.452-.094.2.026 1.997.098 3.994.16 1.997.064 4.179.205 4.847.314.882.145 1.407.048 1.907-.35.45-.358.689-.412.689-.155 0 .252.441.36 1.231.3.676-.051 1.506.108 1.843.354.526.385.659.383.943-.01.229-.32.331-.338.335-.06.003.22.343.399.756.399.597 0 .709-.148.548-.719-.111-.395-.109-.539.006-.32.114.22.368.4.562.4.195 0 .249-.18.12-.4-.129-.219.082-.058.468.36.6.647.734.682.928.239.278-.64 1.19-.68 1.458-.064.203.466.828.503 1.572.095.522-.288 1.659.059 2.047.625.387.563 2.07.55 2.07-.017 0-.671-.814-1.124-2.388-1.328a26.807 26.807 0 0 1-2.514-.457c-.599-.15-1.334-.274-1.634-.276-.299-.002-.953-.1-1.452-.22-1.426-.34-4.728-.796-6.717-.927a77.516 77.516 0 0 1-3.449-.318c-.899-.108-4.33-.27-7.625-.36-3.295-.09-6.808-.224-7.807-.298-4.547-.34-12.643-.455-13.211-.187-.344.162-.823.186-1.065.055-.242-.132-1.262-.147-2.267-.033-1.005.113-1.901.102-1.99-.026-.163-.232-43.244-.304-43.507-.072Zm48.606 1.054c.124.175.051.319-.16.319s-.384-.144-.384-.32c0-.175.071-.319.16-.319.088 0 .261.144.384.32Zm17.973.958c-.214.351-.449.639-.524.639-.074 0-.049-.288.056-.64.104-.35.34-.638.523-.638.184 0 .16.286-.055.639Zm-30.136 0c0 .176-.072.32-.16.32-.089 0-.261-.144-.385-.32-.123-.176-.051-.32.16-.32.212 0 .385.144.385.32Zm-53.737.498c0 .274-.163.41-.363.3-.2-.108-.363-.332-.363-.498 0-.165.163-.3.363-.3.2 0 .363.224.363.498Zm108.741 1.743a.45.45 0 0 1-.566.141c-.186-.1-.338-.031-.338.155 0 .488.564.415 1.089-.141.249-.264.36-.48.247-.48-.112 0-.307.147-.432.325Zm-171.555.953c0 .176-.072.32-.16.32-.088 0-.261-.144-.385-.32-.123-.175-.051-.32.16-.32.212 0 .385.145.385.32ZM10.561 20.113c-.26.229-.43.247-.43.047 0-.426.43-.804.672-.59.103.09-.006.334-.242.543Z" fill="#6966FF"/></svg>