<svg width="60" height="60" viewBox="0 0 60 60" fill="none" xmlns="http://www.w3.org/2000/svg"><path fill-rule="evenodd" clip-rule="evenodd" d="M38.237 12.053h7.899l-25.43 35.616h-7.768l25.3-35.616ZM28.96 22.548l-7.444-10.495h-7.93l11.49 16.22 3.884-5.725Zm-1.948.02-1.964 2.896-8.367-11.811h4.008l6.323 8.915ZM16.038 46.069h3.844l23.146-32.416h-3.965L16.038 46.069Z" fill="#fff"/><path fill-rule="evenodd" clip-rule="evenodd" d="M39.973 46.157h3.841l-9.013-12.798-1.994 2.85 7.166 9.948Zm-9.128-9.936 8.309 11.536h7.744l-12.1-17.182-3.953 5.646Z" fill="url(#a)"/><path fill-rule="evenodd" clip-rule="evenodd" d="M30.347 5.31a.429.429 0 0 0-.857 0v.027a.429.429 0 0 0 .857 0V5.31Zm0 4.367a.429.429 0 0 0-.857 0v.054a.429.429 0 0 0 .857 0v-.054Zm0 4.395a.429.429 0 0 0-.857 0v.054a.429.429 0 0 0 .857 0v-.054Zm0 4.394a.429.429 0 0 0-.857 0v.027a.429.429 0 0 0 .857 0v-.027Zm0 21.68a.429.429 0 0 0-.857 0v.03a.429.429 0 0 0 .857 0v-.03Zm0 4.66a.429.429 0 0 0-.857 0v.059a.429.429 0 0 0 .857 0v-.058Zm0 4.69a.429.429 0 0 0-.857 0v.058a.429.429 0 0 0 .857 0v-.058Zm0 4.69a.429.429 0 0 0-.857 0v.058a.429.429 0 0 0 .857 0v-.058Zm0 4.69a.429.429 0 0 0-.857 0v.028a.429.429 0 0 0 .857 0v-.029Zm28.976-28.948a.429.429 0 0 1-.428.429h-.026a.429.429 0 0 1 0-.857h.026c.236 0 .428.192.428.428Zm-4.175 0a.429.429 0 0 1-.428.429h-.052a.429.429 0 0 1 0-.857h.052c.236 0 .428.192.428.428Zm-4.2 0a.429.429 0 0 1-.429.429h-.052a.429.429 0 0 1 0-.857h.052c.237 0 .429.192.429.428Zm-4.201 0a.429.429 0 0 1-.429.429h-.051a.429.429 0 0 1 0-.857h.051c.237 0 .429.192.429.428Zm-4.2 0a.429.429 0 0 1-.43.429h-.051a.429.429 0 0 1 0-.857h.052c.236 0 .428.192.428.428Zm-4.201 0a.429.429 0 0 1-.429.429h-.026a.429.429 0 0 1 0-.857h.026c.237 0 .429.192.429.428Zm-16.217.429a.429.429 0 0 0 0-.857h-.026a.429.429 0 1 0 0 .857h.026Zm-4.211 0a.429.429 0 0 0 0-.857h-.052a.428.428 0 1 0 0 .857h.052Zm-4.237 0a.429.429 0 0 0 0-.857h-.053a.428.428 0 1 0 0 .857h.053Zm-4.238 0a.429.429 0 0 0 0-.857h-.052a.429.429 0 1 0 0 .857h.052Zm-4.237 0a.429.429 0 0 0 0-.857h-.053a.429.429 0 1 0 0 .857h.053Zm-4.238 0a.429.429 0 0 0 0-.857H.942a.429.429 0 1 0 0 .857h.026Z" fill="#55555E"/><path fill-rule="evenodd" clip-rule="evenodd" d="M29.89.524h.057a.429.429 0 0 1-.001.857h-.056a.429.429 0 0 1 0-.857Zm-4.051.71a.429.429 0 0 1-.358.49l-.055.008a.428.428 0 1 1-.133-.846l.056-.01a.429.429 0 0 1 .49.358Zm8.158 0a.429.429 0 0 1 .49-.357l.056.009a.428.428 0 1 1-.133.846l-.055-.008a.429.429 0 0 1-.358-.49Zm4.437.987a.429.429 0 0 1 .54-.275l.054.017a.429.429 0 0 1-.266.815l-.053-.017a.429.429 0 0 1-.276-.54Zm-17.031 0a.429.429 0 0 1-.276.54l-.053.017a.429.429 0 0 1-.265-.815l.054-.017a.429.429 0 0 1 .54.275Zm21.255 1.674a.429.429 0 0 1 .576-.187l.051.026a.428.428 0 1 1-.39.763l-.05-.025a.429.429 0 0 1-.187-.577Zm-25.48 0a.429.429 0 0 1-.187.577l-.05.025a.428.428 0 1 1-.39-.763l.05-.026a.429.429 0 0 1 .577.187Zm-3.91 2.316a.43.43 0 0 1-.094.6l-.045.032a.429.429 0 1 1-.505-.693l.046-.033a.429.429 0 0 1 .599.094Zm33.3 0a.429.429 0 0 1 .598-.094l.046.033a.429.429 0 0 1-.505.693l-.045-.033a.429.429 0 0 1-.095-.599ZM9.767 9.11a.429.429 0 0 1 0 .606l-.039.039a.429.429 0 1 1-.607-.606l.04-.04a.429.429 0 0 1 .607 0Zm40.3 0a.429.429 0 0 1 .605-.001l.04.04a.429.429 0 1 1-.606.606l-.04-.04a.429.429 0 0 1 0-.605ZM6.761 12.517c.192.14.234.408.094.599l-.032.044a.429.429 0 0 1-.694-.503l.034-.046a.429.429 0 0 1 .598-.094Zm46.312 0a.429.429 0 0 1 .599.094l.033.046a.429.429 0 1 1-.693.503l-.033-.044a.429.429 0 0 1 .094-.6Zm2.438 3.834a.429.429 0 0 1 .577.186l.026.051a.429.429 0 0 1-.764.39l-.025-.05a.429.429 0 0 1 .186-.577Zm-51.188 0a.43.43 0 0 1 .186.577l-.025.05a.429.429 0 0 1-.764-.39l.026-.05a.429.429 0 0 1 .577-.187Zm-1.807 4.17a.429.429 0 0 1 .275.54l-.017.052a.429.429 0 1 1-.816-.264l.018-.054a.429.429 0 0 1 .54-.275Zm54.802 0a.429.429 0 0 1 .54.274l.018.054a.429.429 0 1 1-.816.264l-.017-.052a.429.429 0 0 1 .275-.54ZM1.39 24.922a.429.429 0 0 1 .357.49l-.009.055a.428.428 0 1 1-.847-.132l.01-.057a.429.429 0 0 1 .49-.356Zm57.058 0a.429.429 0 0 1 .49.356l.009.057a.429.429 0 0 1-.847.132l-.009-.055a.429.429 0 0 1 .357-.49ZM.967 29.448c.236 0 .427.192.427.429v.055a.429.429 0 0 1-.857.001v-.057c0-.237.192-.428.43-.428Zm57.903 0c.237 0 .429.191.429.428v.057a.428.428 0 1 1-.857 0v-.056a.43.43 0 0 1 .428-.43ZM1.248 33.984a.429.429 0 0 1 .49.357l.008.055a.429.429 0 0 1-.847.134l-.009-.056a.429.429 0 0 1 .358-.49Zm57.34 0a.429.429 0 0 1 .358.49l-.01.056a.428.428 0 1 1-.846-.134l.009-.055a.429.429 0 0 1 .49-.357ZM2.236 38.42a.429.429 0 0 1 .54.276l.017.053a.429.429 0 0 1-.815.265l-.018-.054a.429.429 0 0 1 .276-.54Zm55.366 0a.429.429 0 0 1 .276.54l-.018.054a.429.429 0 1 1-.815-.266l.018-.052a.429.429 0 0 1 .54-.276ZM3.91 42.645a.429.429 0 0 1 .576.187l.025.05a.429.429 0 0 1-.763.39l-.026-.05a.429.429 0 0 1 .188-.577Zm52.019 0c.21.107.294.365.187.576l-.026.05a.429.429 0 0 1-.763-.39l.025-.049a.429.429 0 0 1 .577-.187ZM6.224 46.554a.429.429 0 0 1 .599.095l.032.044a.429.429 0 0 1-.692.506l-.034-.046a.429.429 0 0 1 .095-.6Zm47.386 0a.429.429 0 0 1 .095.599l-.033.046a.429.429 0 0 1-.693-.505l.033-.045a.429.429 0 0 1 .598-.095Zm-44.488 3.5a.429.429 0 0 1 .606 0l.04.04a.428.428 0 1 1-.606.606l-.04-.04a.429.429 0 0 1 0-.606Zm41.59 0a.429.429 0 0 1 0 .606l-.04.04a.429.429 0 1 1-.605-.606l.039-.04a.429.429 0 0 1 .606 0ZM12.53 53.06a.429.429 0 0 1 .6-.093l.044.032a.429.429 0 1 1-.504.694l-.046-.034a.429.429 0 0 1-.094-.599Zm34.776 0a.43.43 0 0 1-.094.6l-.046.033a.429.429 0 1 1-.504-.694l.045-.032a.429.429 0 0 1 .599.093ZM16.365 55.5a.429.429 0 0 1 .576-.187l.05.026a.429.429 0 0 1-.39.764l-.05-.026a.429.429 0 0 1-.186-.577Zm27.107 0a.429.429 0 0 1-.187.577l-.05.026a.429.429 0 0 1-.39-.764l.05-.026a.429.429 0 0 1 .576.187Zm-22.938 1.807a.429.429 0 0 1 .54-.275l.053.017a.429.429 0 1 1-.264.816l-.054-.018a.429.429 0 0 1-.275-.54Zm18.768 0a.429.429 0 0 1-.274.54l-.055.018a.429.429 0 1 1-.264-.816l.053-.017a.429.429 0 0 1 .54.275Zm-14.366 1.127a.428.428 0 0 1 .49-.356l.055.009a.429.429 0 1 1-.132.846l-.056-.009a.429.429 0 0 1-.357-.49Zm9.964 0a.429.429 0 0 1-.356.49l-.057.01a.429.429 0 0 1-.132-.847l.055-.01a.428.428 0 0 1 .49.357Zm-5.439.424a.43.43 0 0 1 .43-.429h.055a.429.429 0 0 1 0 .858h-.057a.429.429 0 0 1-.428-.43Z" fill="#fff"/><path d="M30.871 58.857a.952.952 0 1 1-1.905 0 .952.952 0 0 1 1.905 0Zm27.999-28a.952.952 0 1 1 0-1.905.952.952 0 0 1 0 1.905ZM30.871.952a.952.952 0 1 1-1.905 0 .952.952 0 0 1 1.905 0ZM.966 30.857a.952.952 0 1 1 0-1.905.952.952 0 0 1 0 1.905Z" fill="#6966FF"/><defs><linearGradient id="a" x1="40.898" y1="45.053" x2="28.099" y2="27.467" gradientUnits="userSpaceOnUse"><stop stop-color="#6966FF"/><stop offset="1" stop-color="#6966FF" stop-opacity=".36"/></linearGradient></defs></svg>