<svg width="121" height="40" viewBox="0 0 121 40" fill="none" xmlns="http://www.w3.org/2000/svg"><path fill-rule="evenodd" clip-rule="evenodd" d="M52.87 39.876c-.27-.062-.563-.17-.65-.24-.089-.07-.2-.046-.248.055-.112.233-.627.238-.627.006 0-.106-.137-.095-.349.03-.273.16-.429.15-.718-.049-.277-.19-.383-.2-.425-.039-.043.164-.139.167-.404.01-.238-.14-.379-.145-.443-.018-.052.102-.357.197-.678.212-.46.02-.63-.058-.8-.37-.118-.219-.216-.313-.216-.21 0 .206-1.608.32-1.846.13-.08-.063-.55-.097-1.042-.074-.76.036-.946-.018-1.225-.356-.255-.31-.371-.352-.52-.193-.276.296-1.382.204-1.574-.13-.13-.226-.198-.236-.37-.053-.15.16-.224.167-.261.023-.033-.127-.484-.203-1.23-.205-.649-.002-1.523-.13-1.944-.285-.42-.155-.97-.261-1.223-.236-.253.025-.537-.038-.633-.14a.72.72 0 0 0-.445-.192c-.568-.013-1.393-.248-1.661-.473-.153-.13-.535-.23-.849-.224-.313.006-.689-.07-.834-.171-.146-.1-.562-.24-.925-.31s-.66-.2-.66-.287c0-.087-.112-.159-.248-.159s-.381-.12-.545-.269c-.163-.148-.396-.22-.516-.16s-.468-.059-.771-.263c-.345-.232-.585-.303-.64-.19-.052.111-.15.119-.248.02-.089-.09-.684-.416-1.322-.727-.639-.31-1.316-.72-1.504-.912-.189-.191-.433-.303-.543-.249-.136.068-.2-.027-.2-.3 0-.3-.043-.354-.173-.215-.121.129-.343.109-.73-.066a9.635 9.635 0 0 0-.591-.252c-.02-.002-.036-.185-.037-.406-.002-.292-.035-.337-.12-.163-.1.2-.168.2-.415.002-.164-.132-.297-.29-.297-.353 0-.062-.266-.166-.591-.232-.86-.172-1.773-.655-1.773-.937 0-.135-.09-.245-.201-.245-.111 0-.37-.2-.574-.445-.205-.245-.426-.403-.49-.35-.065.05-.228-.072-.361-.273-.134-.202-.386-.366-.56-.366-.192 0-.317-.109-.317-.274 0-.15-.157-.35-.348-.444-.191-.093-.348-.313-.35-.488-.001-.236-.031-.258-.116-.086-.091.185-.203.167-.553-.09-.242-.177-.44-.423-.44-.546 0-.123-.126-.224-.279-.224-.153 0-.278-.065-.278-.144 0-.079-.282-.32-.626-.535-.344-.216-.626-.474-.626-.574 0-.1-.093-.181-.208-.181-.116 0-.209-.16-.209-.36 0-.198-.092-.358-.208-.358-.115 0-.209-.08-.209-.18a.177.177 0 0 0-.174-.179c-.26 0-1.189-1.073-.938-1.083.114-.004-.01-.11-.278-.234-.268-.124-.668-.443-.89-.71-.221-.265-.456-.483-.521-.483-.066 0-.12-.119-.12-.264 0-.145-.174-.38-.387-.523-.213-.142-.632-.628-.93-1.08-.3-.452-.612-.822-.695-.822-.189 0-.907-1.042-.908-1.319 0-.113-.186-.341-.412-.507-.227-.166-.452-.509-.501-.762-.05-.253-.158-.46-.241-.46-.244 0-.931-.937-.931-1.27 0-.168-.094-.352-.209-.41-.114-.056-.208-.236-.208-.4 0-.165-.11-.43-.244-.59-.332-.4-.59-1.023-.59-1.425 0-.183-.122-.513-.27-.734-.148-.22-.238-.507-.2-.637.044-.144-.022-.226-.167-.21-.365.042-.384-.335-.028-.576.174-.118.216-.179.094-.135-.192.068-.681-.435-.681-.702 0-.05-.165-.427-.365-.837C.756 7.123.72 6.937.857 6.655c.118-.244.122-.406.015-.573-.16-.248-.057-.815.149-.815.068 0 .124-.073.124-.163 0-.089-.125-.12-.278-.068-.187.063-.279.005-.279-.175a.84.84 0 0 0-.206-.488c-.18-.194-.172-.278.07-.674.3-.494.368-1.122.12-1.122-.113 0-.115-.065-.006-.233.082-.129.115-.408.071-.621C.534 1.207.911.72 1.294.878c.174.07.259.219.214.37-.042.141.008.253.113.253.203 0 .35-.489.255-.851C1.844.526 1.73.426 1.621.426c-.25 0-.257-.291-.01-.414.104-.05.292.062.418.252.25.376.306.879.099.879-.158 0-.139.764.022.91.063.056.143.294.178.528.035.235.159.495.275.579.116.084.211.375.211.647 0 .315.162.708.442 1.078.315.416.445.76.452 1.199.008.462.071.616.254.617.221 0 .299.176.208.473-.019.063.098.177.261.255.226.108.28.25.227.603-.05.343-.01.462.156.462.124 0 .225.081.225.18 0 .098.094.179.209.179.115 0 .208.086.208.192 0 .106.098.318.218.473.154.198.174.336.07.471-.224.288-.178.5.095.44.142-.03.243.06.243.217 0 .148.125.316.278.375.153.057.263.199.244.313-.02.115.048.209.15.209.1 0 .325.194.498.432.294.403.298.437.06.517-.178.059-.143.091.114.106.26.014.51.248.835.78.696 1.139.936 1.41 1.198 1.354.157-.034.254.086.283.352.027.243.141.403.289.403.14 0 .36.286.518.673.151.37.334.683.407.696.47.086.8.356.93.763.083.257.14.529.129.603-.013.074.055.146.15.161.096.015.237.047.314.07.076.022.256.05.399.062.188.015.24.119.186.38-.058.284-.004.358.262.358.184 0 .335.091.335.203 0 .264.6.98 1.103 1.314.216.145.43.387.475.538a.401.401 0 0 0 .356.276c.15 0 .304.062.34.137.037.076-.194.116-.513.09-.517-.044-.546-.026-.264.16.217.143.29.31.234.538-.1.404.044.423.364.05.219-.256.27-.24.602.188.199.257.362.382.362.28 0-.246.38-.244.443 0 .027.105.173.214.324.243.173.033.276.191.276.422 0 .514.163.674.414.405.14-.15.212-.16.212-.028 0 .108.156.248.347.31.191.062.348.225.348.362 0 .159.155.25.427.25.414 0 1.407.737 1.787 1.327.1.155.233.241.296.191.063-.05.337.07.61.268.272.197.495.318.495.268 0-.186.91.52 1.088.844.1.184.244.286.319.227.074-.06.21-.03.303.066.092.096.45.231.794.3.344.07.859.321 1.144.559.285.238.647.432.804.432.157 0 .518.134.802.297.285.163.573.28.64.26.069-.02.264.134.434.34.225.273.41.345.67.26.229-.073.471-.012.674.17.174.158.586.287.916.287.39 0 .625.089.675.255.042.14.168.3.28.357.115.056.169.023.122-.074-.048-.1.01-.13.132-.069.118.06.22.24.226.402.006.162.038.212.071.11.071-.218 1.17-.117 1.17.108 0 .085.099.106.22.046.184-.091.695.066 2.005.618.287.12.75.194 1.791.287.489.043.927.157.974.252.081.165.431.213 2.032.28.383.015.738.103.789.195.051.092.364.188.695.214.331.026.64.052.685.057.045.006.258.205.473.443.328.363.422.394.578.192.103-.132.187-.322.187-.422 0-.257 1.948-.032 2.281.263.193.17.339.183.536.047.156-.108.487-.133.779-.059.278.071 2.04.154 3.913.185 1.874.031 3.549.062 3.721.07.173.006.455.193.626.413l.312.402.046-.424c.042-.38.1-.414.539-.322.27.057.61.24.753.408.247.288.26.285.26-.059 0-.295.099-.368.522-.39 1.225-.064 1.896-.007 2.068.178.137.146.24.125.398-.08.266-.342 2.858-.389 3.025-.054.065.131.103.092.104-.109.002-.336.402-.402.906-.148.18.09.327.055.417-.1.077-.133.515-.287.974-.343a54.968 54.968 0 0 0 1.25-.166c.229-.036.455.016.501.113.053.11.159.088.28-.06.227-.277 1.237-.406 1.237-.156 0 .093.23.046.511-.106.281-.151.743-.247 1.026-.212.372.046.496 0 .447-.164-.06-.201.221-.321.567-.242.065.015.503-.107.973-.27.471-.164 1.169-.32 1.551-.345.383-.026.82-.1.973-.165.22-.094.334.015.547.526.218.521.293.591.39.366.067-.153.083-.359.036-.456-.047-.098-.011-.178.08-.178.123 0 .124-.061.004-.248-.125-.195-.092-.27.157-.356.49-.169.55-.14.458.233-.072.293-.02.345.338.331.349-.012.424-.09.424-.436 0-.62.482-1.17.906-1.032.193.063.583-.01.883-.165.4-.206.577-.225.694-.074.117.15.23.102.442-.192.217-.3.4-.375.765-.317.278.044.524-.012.585-.134.058-.116.324-.312.592-.436.41-.191.51-.185.638.038.114.202.19.215.313.056a.825.825 0 0 0 .162-.422c0-.306 1.148-.96 1.917-1.091.36-.062.779-.221.93-.354.15-.134.365-.243.477-.243.112 0 .489-.18.838-.401a2.601 2.601 0 0 1 1.343-.404c.543-.001.706-.065.695-.27-.007-.166.135-.291.37-.326.21-.031.382-.123.382-.205 0-.202 1.042-.725 1.446-.725a.66.66 0 0 0 .501-.269c.189-.293.695-.37.695-.104 0 .09-.078.205-.174.255-.106.055-.083.096.062.104.13.008.347-.23.484-.527.136-.298.327-.502.425-.454.097.048.177.017.177-.068 0-.086.23-.148.512-.138.287.011.536-.076.568-.197.03-.118.136-.215.235-.215.1 0 .258-.121.353-.27.096-.147.291-.268.435-.268.143 0 .392-.17.552-.377.188-.242.41-.347.621-.294.181.044.358-.008.393-.117.043-.133.108-.118.197.046.112.206.146.206.22 0 .065-.188.104-.193.166-.022.062.171.127.162.282-.037.111-.143.31-.215.441-.16.183.075.195.057.05-.076-.158-.146-.158-.198 0-.33a.86.86 0 0 1 .398-.176c.115-.01.318-.03.452-.044.134-.015.243-.148.243-.296 0-.187.146-.269.48-.269.29 0 .528-.11.601-.28.067-.154.221-.3.341-.322.12-.023.316-.145.435-.272.119-.127.335-.183.481-.123.156.064.337-.003.441-.164.096-.15.277-.274.402-.275.124 0 .414-.161.643-.357.23-.196.527-.357.661-.357.134-.001.243-.065.243-.142 0-.141.325-.214.962-.216.185 0 .447-.13.582-.288.136-.158.301-.243.369-.19.067.054.21-.06.317-.251.108-.192.268-.35.356-.35.089 0 .239-.12.334-.268.224-.347.557-.347.557 0 0 .148-.063.269-.139.269-.077 0-.14.073-.14.162 0 .09.152.07.338-.042.249-.152.299-.264.191-.432-.08-.124-.091-.234-.024-.244a26.9 26.9 0 0 1 .65-.076c.574-.062.931-.344.931-.735 0-.136.065-.247.144-.247.079 0 .308-.138.508-.307.2-.169.457-.325.572-.347a.51.51 0 0 0 .313-.257.243.243 0 0 1 .328-.106c.139.069.288-.023.395-.243.094-.195.274-.354.401-.354.129 0 .268-.196.317-.448.048-.246.184-.448.303-.448.192 0 .192-.03.007-.269-.115-.148-.276-.269-.358-.269-.082 0-.149-.083-.149-.184 0-.104-.18-.063-.418.095-.301.2-.491.229-.677.1-.142-.097-.302-.122-.354-.055-.052.068-.151.007-.219-.136-.108-.224-.135-.223-.203.006-.065.221-.398.25-2.058.174-1.089-.05-2.066-.16-2.17-.247-.122-.101-.233-.07-.311.09-.096.197-.121.199-.123.01a.936.936 0 0 0-.183-.47c-.148-.191-.235-.177-.48.08-.242.251-.417.284-.897.164a9.51 9.51 0 0 0-.702-.157c-.057-.004-.104-.129-.104-.277 0-.148-.065-.269-.144-.269-.079 0-.179.121-.223.27-.095.319-.35.348-.57.064-.184-.237.115-.73.412-.68.412.07.543-.035.519-.416-.058-.937 0-1.202.239-1.084.176.088.211.043.143-.185-.053-.179-.021-.3.08-.302a2.06 2.06 0 0 0 .482-.11c.23-.08.313-.032.313.18 0 .331.183.37.55.116.201-.139.269-.101.326.18.039.194.144.353.233.353.098 0 .127-.14.074-.357-.07-.282-.039-.333.143-.243a.25.25 0 0 0 .339-.108c.059-.122.334-.237.612-.253.398-.025.504.035.504.286 0 .432.368.402.457-.038.065-.321.167-.347 1.083-.28.688.05 1.13-.005 1.382-.173.315-.21.426-.21.741 0 .203.137.37.187.37.111s.188-.102.417-.059c.23.044.417.183.417.309 0 .343.382.465.476.152.114-.384.101-.46-.057-.334-.08.064-.101-.012-.05-.184.07-.235.111-.246.207-.054.098.196.145.19.259-.03.115-.223.16-.227.261-.025.082.164.151.18.214.05.05-.106.293-.186.538-.177.246.009.509-.003.586-.027.289-.088.376.008.223.247-.127.197-.092.246.18.246.214 0 .363-.123.407-.336.093-.463.34-.423.413.067l.06.404.019-.404c.026-.548.714-.591.714-.045 0 .198.057.359.126.359.07 0 .097-.147.06-.326-.08-.396.263-.802.607-.719.138.033.312.241.387.461.075.22.2.392.278.382.357-.05.46.06.54.578.069.44.022.622-.226.88-.28.293-.295.384-.147.891.147.501.131.61-.137.955-.166.214-.284.552-.263.75.029.27.007.3-.089.118-.089-.17-.156-.183-.223-.045-.052.11-.21.199-.35.199-.293 0-.424.34-.424 1.101 0 .294-.051.493-.114.443-.128-.102-.581.514-.581.789 0 .097-.085.177-.189.177-.127 0-.168.148-.124.443.05.34-.042.56-.396.942-.867.936-1.252 1.49-1.163 1.674.119.25-.31 1.065-.56 1.065-.122 0-.17.107-.121.27.053.178-.007.27-.178.274-.41.009-.745.44-.745.957 0 .43-.026.454-.28.25-.247-.2-.323-.161-.633.311-.194.296-.445.8-.556 1.12-.229.655-.4.732-.6.271-.196-.451-.362-.13-.346.668.011.53-.032.668-.184.593-.124-.061-.228.046-.277.284-.042.21-.158.381-.256.381-.116 0-.153-.142-.103-.403l.077-.404-.294.425c-.402.58-.514 1.105-.283 1.317.138.126.108.15-.114.087-.217-.06-.281-.014-.228.164.04.137 0 .249-.091.249s-.408.327-.706.726c-.298.4-.621.713-.719.696-.648-.11-.804.01-.804.623 0 .514-.042.597-.266.521-.182-.061-.343.06-.506.381-.131.259-.204.515-.162.57.096.125-.333.686-.759.99-.321.23-.404.269-.671.312-.076.012-.139.183-.139.38 0 .205-.093.36-.215.36-.118 0-.322.24-.452.536-.289.655-.525.688-.642.09-.048-.246-.184-.447-.302-.447-.152 0-.19.105-.127.357.065.267.036.332-.116.257-.333-.165-.382-.782-.081-1.024.146-.118.266-.33.266-.47 0-.141.041-.204.09-.14.1.129.874-1.112.88-1.411.004-.193.938-.797 1.232-.797.089 0 .162.131.162.29 0 .24.038.252.209.069a.89.89 0 0 0 .211-.515c.001-.25.02-.254.131-.028.071.145.178.2.237.124.134-.172-.24-.492-.414-.353-.117.093-.367-.247-.372-.507-.001-.063.123-.156.276-.207.152-.052.321-.243.375-.425.153-.514.638-.968.962-.9.227.048.279-.013.227-.267-.036-.181-.123-.33-.193-.33-.069 0-.021-.206.108-.458.144-.284.269-.384.327-.263.172.36.542-.015.585-.593.039-.515.091-.573.565-.624.482-.05.51-.084.366-.43-.134-.323-.122-.358.086-.256.184.092.226.044.176-.202-.08-.396.251-.827.53-.689.134.067.253-.058.342-.358.17-.577.043-.884-.24-.582-.115.123-.406.236-.648.25-.712.041-.786.07-.786.307 0 .216-.89.671-1.312.671-.113 0-.255.117-.317.26-.066.151-.391.291-.776.334-.364.04-.7.122-.746.182-.047.06-.192.034-.324-.057-.202-.14-.229-.096-.174.275.04.266.001.44-.098.44-.09 0-.125-.08-.078-.178.228-.475-.318-.112-.954.634-.186.218-1.179.61-1.479.583-.686-.062-1.112.058-1.112.312a.46.46 0 0 1-.244.386 1.73 1.73 0 0 0-.452.337c-.114.123-.396.25-.626.283-.229.032-.626.203-.882.381s-.584.276-.73.216c-.147-.06-.265-.024-.265.083 0 .105-.156.191-.347.191-.192 0-.348.086-.348.19 0 .105-.063.14-.14.079-.077-.062-.322.055-.543.258-.222.204-.472.37-.555.37-.084 0-.153.08-.153.18 0 .098-.144.178-.32.178-.175 0-.379.072-.451.16-.073.088-.662.367-1.309.619-.932.363-1.219.414-1.382.243-.165-.171-.184-.166-.096.023.132.282-.324.903-.581.792-.094-.04-.382.095-.64.3-.257.206-.642.374-.854.374-.211 0-.454.12-.54.265a.795.795 0 0 1-.432.332 2.903 2.903 0 0 0-.486.167c-.704.34-1.13.452-1.388.365-.185-.063-.357.012-.466.203-.094.168-.372.31-.62.32-.245.009-.447.093-.447.187s-.087.129-.193.076c-.106-.053-.33.068-.497.27-.218.26-.416.336-.698.263-.263-.068-.418-.02-.467.142-.04.134-.53.378-1.09.541-.56.163-1.16.417-1.335.563-.174.146-.37.223-.435.171-.065-.052-.31.03-.547.182-.42.27-1.214.265-1.725-.01-.196-.105-.244-.039-.244.337 0 .296-.076.467-.208.467-.115 0-.209.068-.209.15 0 .083-.226.162-.503.175-.276.013-.585.112-.685.22-.21.223-.918.393-1.513.362-.223-.011-.45.072-.505.186-.055.114-.435.242-.845.286-1.087.116-1.268.111-1.624-.037-.252-.106-.336-.059-.392.22-.074.361-.084.364-1.859.498-.718.054-1.063.148-1.201.325-.053.07-.387.125-.741.125-.355 0-.704.076-.777.17-.108.138-.99.212-2.148.18-.115-.003-.49.081-.834.187-.93.287-1.716.345-1.91.141-.097-.1-.28-.117-.418-.036-.328.192-2.956.253-2.956.069 0-.08-.175-.033-.388.104-.24.154-.73.231-1.286.203-.93-.047-1.309-.205-1.172-.49.043-.09-.018-.117-.137-.058-.119.059-.216.189-.216.289 0 .105-.088.087-.208-.041-.17-.182-.209-.174-.209.042 0 .219-.202.255-1.134.204-.624-.035-1.164-.102-1.2-.149-.037-.047-.168-.02-.291.057-.124.078-.447.09-.717.028Zm49.405-4.436c-.096-.044-.167-.335-.158-.648.011-.381.038-.45.084-.209.038.198.133.462.213.587.168.267.107.384-.139.27Zm-38.415-.408c0-.1-.066-.18-.147-.18-.081 0-.109.08-.061.18.047.098.113.179.147.179.034 0 .061-.08.061-.18Zm39.075-.488c0-.35.246-.768.453-.768.066 0 .071.101.011.225-.06.123-.111.338-.113.477-.005.39-.351.454-.351.066Zm-63.587-.338c-.046-.06-.166-.066-.266-.014-.11.057-.078.1.084.108.147.008.229-.034.183-.094Zm63.239-.25c-.047-.099.012-.18.131-.18.119 0 .217.081.217.18 0 .098-.059.179-.131.179-.072 0-.169-.08-.217-.18Zm-65.565-.549c0-.093-.062-.168-.139-.168-.076 0-.139.125-.139.279 0 .154.063.23.14.169a.409.409 0 0 0 .138-.28Zm-7.092-.068c0-.044-.062-.13-.139-.19-.076-.061-.139-.025-.139.079 0 .104.063.19.14.19.076 0 .138-.036.138-.08Zm-.325-1.76c-.038-.122-.07-.021-.07.225 0 .247.032.347.07.224a.882.882 0 0 0 0-.448Zm-1.621-1.389c0-.098-.11-.178-.244-.176-.208.002-.213.028-.034.176.262.22.278.22.278 0Zm63.15-1.303c-.227-.292-.356-.02-.137.288.103.145.21.183.238.085.028-.097-.018-.265-.102-.373Zm-65.723.227c.047-.098.02-.179-.061-.179s-.148.08-.148.18c0 .098.028.179.062.179s.1-.08.147-.18Zm81.835-1.344c0-.148-.063-.27-.139-.27-.077 0-.139.122-.139.27 0 .148.062.269.139.269.076 0 .139-.121.139-.27Zm4.728-6.545c0-.099-.028-.18-.062-.18-.033 0-.1.081-.147.18-.047.099-.019.18.061.18.081 0 .148-.081.148-.18Zm-.696-9.055c0-.148-.062-.269-.139-.269-.076 0-.139.121-.139.27 0 .147.063.268.139.268.077 0 .139-.12.139-.269Zm-105.96-.348c0-.043-.063-.129-.14-.19-.076-.06-.139-.025-.139.08 0 .104.063.19.14.19.076 0 .138-.036.138-.08Zm106.795-.19c0-.148-.063-.269-.139-.269-.077 0-.139-.134-.139-.299 0-.164-.039-.248-.087-.187-.125.161.067 1.024.228 1.024.075 0 .137-.12.137-.269Zm-5.001-.802c-.279-.223-.456-.038-.247.259.11.157.222.183.31.072.091-.112.069-.226-.063-.331Zm1.232.287c.167-.26.071-.83-.14-.83-.068 0-.124.121-.124.27 0 .147-.101.268-.225.268-.185 0-.195.049-.053.27.215.333.338.338.542.022Zm9.07-.16c-.137-.176-.153-.155-.078.1.053.177.13.277.173.221.043-.055 0-.2-.095-.321Zm-11.702-.266c-.004-.423-.024-.448-.147-.178-.078.173-.104.395-.057.493.144.3.208.2.204-.315Zm4.454-.414c0-.203-.063-.32-.139-.258-.077.06-.139.226-.139.369 0 .142.062.258.139.258.076 0 .139-.166.139-.37Zm3.198-.258c0-.148-.092-.27-.204-.27-.124 0-.173.106-.124.27.044.147.136.268.204.268.068 0 .124-.12.124-.269ZM2.812 9.117c-.097-.15-.205-.237-.24-.192-.096.125.1.465.268.465.092 0 .081-.103-.028-.273Zm1.254-1.42c0-.043-.063-.129-.14-.19-.076-.06-.138-.025-.138.08 0 .104.062.19.139.19.076 0 .139-.036.139-.08Z" fill="#6966FF"/></svg>