<svg width="63" height="60" viewBox="0 0 63 60" fill="none" xmlns="http://www.w3.org/2000/svg"><path fill-rule="evenodd" clip-rule="evenodd" d="M1.04 1.537C.79 2.49.582 3.464.5 4.438.228 7.878-.085 19.422.02 21.743c0 .705.125 1.492.417 2.135.52 1.14 1.852 1.222 2.58.165.27-.373.437-.87.52-1.347.23-1.388.417-2.777.52-4.165.292-4.186.562-8.393.75-12.58.062-1.388-.083-2.797-.25-4.186C4.432.729 3.579-.059 2.788.003 1.852.086 1.27.687 1.04 1.537Zm28.468 27.604c.08-.318.149-.617.215-.902.14-.607.266-1.153.45-1.689 2.706-7.958 7.055-15.046 12.008-21.78.583-.788 1.31-1.534 2.122-2.032.437-.27 1.311-.228 1.81.042.375.207.646 1.015.563 1.471a8.104 8.104 0 0 1-.895 2.55 1415.4 1415.4 0 0 1-8.699 15.542 227.74 227.74 0 0 1-2.664 4.497l-.748 1.244a19.047 19.047 0 0 1-1.228 1.844c-.479.663-1.207 1.057-1.936.622a9.322 9.322 0 0 0-.138-.082c-.435-.255-.86-.503-.86-1.327ZM58.975 60a50.373 50.373 0 0 0-1.05-.158c-.723-.105-1.49-.215-2.238-.38-4.433-.996-8.865-1.99-13.277-3.027-.957-.227-1.893-.621-2.747-1.077-1.144-.601-1.54-1.45-1.352-2.383.187-.933.936-1.513 2.247-1.534.895-.02 1.852 0 2.706.207a1529.49 1529.49 0 0 1 16.772 4.331c.624.166 1.27.456 1.748.87 1.207 1.016.833 2.612-.707 3.006-.382.092-.796.1-1.255.11-.267.006-.549.012-.847.035Z" fill="#6966FF"/></svg>